SplineFontDB: 1.0
FontName: Tuffy
FullName: Tuffy Regular
FamilyName: Tuffy
Weight: Regular
Copyright: Created by Thatcher Ulrich (http://tulrich.com) with FontForge 1.0 (http://fontforge.sf.net)\n\nThis font, including hint instructions, has been donated to the Public Domain.  Do whatever you want with it.\n
Comments: 2004-9-1: Created.
Version: 001.000
ItalicAngle: 0
UnderlinePosition: -100
UnderlineWidth: 50
Ascent: 780
Descent: 220
NeedsXUIDChange: 1
XUID: [1021 745 1046372284 8037501]
FSType: 0
PfmFamily: 33
TTFWeight: 500
TTFWidth: 5
Panose: 2 11 6 3 6 1 0 0 0 0
LineGap: 93
VLineGap: 0
OS2WinAscent: 0
OS2WinAOffset: 1
OS2WinDescent: 0
OS2WinDOffset: 1
HheadAscent: 0
HheadAOffset: 1
HheadDescent: 0
HheadDOffset: 1
ScriptLang: 2
 1 latn 1 dflt 
 1 DFLT 1 dflt 
TtfTable: cvt  4
!$MDh
EndTtf
LangName: 1033 "" "" "" "" "" "" "" "" "" "Thatcher Ulrich" "" "http://tulrich.com+AAoA" "http://tulrich.com+AAoA" "Public Domain+AAoA" 
LangName: 1036 "" "" "NormalItalique" 
LangName: 1040 "" "" "NormaleCursivo" 
LangName: 1031 "" "" "StandardKursiv" 
LangName: 1034 "" "" "NormalCursiva" 
LangName: 1049 "" "" "+BB4EMQRLBEcEPQRLBDkEGgRDBEAEQQQ4BDIA" 
LangName: 1038 "" "" "Norm+AOEA-lD+AVEA-lt" 
LangName: 1043 "" "" "RegelmatigCursief" 
LangName: 1053 "" "" "MagerKursiv" 
LangName: 1044 "" "" "VanligKursiv" 
Encoding: compacted
OldEncoding: UnicodeBmp
UnicodeInterp: none
DisplaySize: -48
AntiAlias: 1
FitToEm: 1
WinInfo: 34 17 9
BeginPrivate: 7
BlueValues 23 [-16 2 522 538 708 728]
OtherBlues 0 
StdHW 4 [66]
StdVW 5 [70]

StemSnapH 6 [66] 

StemSnapV 6 [70] 

BlueScale 8 0.039625
EndPrivate
Grid
-24 262 m 6
 772 262 l 4
531 830 m 29
 531 -16 l 29
-20 710 m 6
 776 710 l 4
-22 524 m 6
 774 524 l 4
490 830 m 29
 490 -16 l 29
562 832 m 29
 562 -14 l 29
-24 355 m 6
 772 355 l 4
-28 -14 m 6
 768 -14 l 4
70 832 m 29
 70 -14 l 29
EndSplineSet

StartChar: exclam
Encoding: 1 33 1
OldEncoding: 33
Width: 206
Flags: HW
HStem: 704 20G<88 108>
Fore
136.999 215 m 5
 136.999 198 123 186 109 186 c 5
 93.1875 186.328 79.999 198 79.999 215 c 5
 60 678 l 1
 60 704 83 724 108 724 c 1
 134 724 157 703 157 679 c 1
 136.999 215 l 5
EndSplineSet
Ref: 14 46 N 1 0 0 1 0 0
EndChar
StartChar: quotedbl
Encoding: 2 34 2
OldEncoding: 34
Width: 337
Flags: HW
VStem: 63 73<716 725.547> 206 73<716 725.547>
Fore
216 533 m 1
 205.999 716 l 1
 206.001 740.105 223.663 753.054 241.063 753.054 c 0
 241.709 753.054 242.355 753.036 243 753 c 0
 258.55 753 274.101 744.044 278.045 725.486 c 0
 278.667 722.562 278.999 719.402 278.999 716 c 1
 269 533 l 1
 268 518 254 510 242 510 c 0
 231.083 510 219.338 515.794 216.555 528.888 c 0
 216.278 530.186 216.09 531.557 216 533 c 1
73 533 m 1
 62.999 716 l 1
 63.001 740.105 80.6631 753.054 98.0635 753.054 c 0
 98.709 753.054 99.3555 753.036 100 753 c 0
 115.55 753 131.101 744.044 135.045 725.486 c 0
 135.667 722.562 135.999 719.402 135.999 716 c 1
 126 533 l 1
 125 518 111 510 99 510 c 0
 88.083 510 76.3379 515.794 73.5547 528.888 c 0
 73.2783 530.186 73.0898 531.557 73 533 c 1
EndSplineSet
EndChar
StartChar: numbersign
Encoding: 3 35 3
OldEncoding: 35
Width: 776
Flags: HW
HStem: 198 69<63 233 306 473 546 722> 432 68<63 233 306 473 546 722>
VStem: 233 73<26 198 267 432 500 685> 473 73<26 198 267 432 500 685>
Fore
473 267 m 0
 473 432 l 0
 306 432 l 0
 306 267 l 0
 473 267 l 0
546 198 m 0
 546 26 l 1
 473 26 l 1
 473 198 l 0
 306 198 l 0
 306 26 l 1
 233 26 l 1
 233 198 l 0
 63 198 l 1
 63 267 l 1
 233 267 l 0
 233 432 l 0
 63 432 l 1
 63 500 l 1
 233 500 l 0
 233.001 685 l 1
 306.001 685 l 1
 306 500 l 0
 473 500 l 0
 473.001 685 l 1
 546.001 685 l 1
 546 500 l 0
 722 500 l 1
 722 432 l 1
 546 432 l 0
 546 267 l 0
 722 267 l 1
 722 198 l 1
 546 198 l 0
EndSplineSet
KernsSLIF: 4 -27 0 0
EndChar
StartChar: dollar
Encoding: 4 36 4
OldEncoding: 36
Width: 497
Flags: HW
Back
212 730 m 1
 284 730 l 1
 284 -56 l 1
 212 -56 l 1
 212 730 l 1
12 130 m 1
 78 169 l 1
 122 101 157.001 55 248.001 55 c 1
 337.001 55 396 107 396 184 c 1
 396 276 308.612 304.304 222 328 c 0
 146.2 348.738 45 381 41 505 c 0
 37.1309 624.938 134 690 248 690 c 1
 365 690 411 638 456.999 570 c 1
 396 531 l 1
 367 581 326 621 248 621 c 1
 173 621 120 585 120 505 c 0
 120 412 204.783 409.649 275.999 382 c 0
 366.75 346.769 476 329 475 184 c 0
 474.159 62.0029 380 -13 248 -14 c 1
 139 -13 77 28 12 130 c 1
EndSplineSet
Fore
221 750.442 m 1
 284 750.442 l 1
 284 688.739 l 1
 359 683 414 637 457 570.442 c 1
 396 531.442 l 1
 376 569 337 610 284 617.245 c 1
 284 378.647 l 1
 376.688 343.419 475 322 475 187 c 0
 475 82 403 0 284 -12.4834 c 1
 284 -75.5186 l 1
 222 -75.5186 l 1
 222 -12.4688 l 1
 114 -4 65.7109 45.7148 12 130 c 1
 78 169 l 1
 112.414 115.814 146 65 222 57 c 1
 222 328 l 1
 123 352 41 397 41 513 c 0
 41 617 123 682 221 687.82 c 1
 221 750.442 l 1
222 399.124 m 1
 222 620 l 1
 163 613 120 573 120 513 c 0
 120 437 163 414 222 399.124 c 1
284 307.829 m 1
 284 58 l 1
 355 70 396 118 396 187 c 0
 396 240 361 284 284 307.829 c 1
EndSplineSet
EndChar
StartChar: percent
Encoding: 5 37 5
OldEncoding: 37
Width: 685
Flags: HW
HStem: 51 56<498 516> 255 59<498 516> 395 56<178 196> 599 59<178 196>
VStem: 51 62<526 532> 255 63<526 532> 372 63<182 184> 576 63<182 184>
DStem: 491 644 561 644 139 67 212 67
Fore
435.001 182 m 0
 435 175.392 435.669 169.006 436.959 162.937 c 0
 443.868 130.432 468.608 107 503.999 107 c 0
 542.999 107 576 138 576.001 182 c 0
 576 187.202 575.448 192.315 574.395 197.27 c 0
 567.552 229.465 539.531 255 504 255 c 0
 466 255 435 221 435.001 182 c 0
372.001 182 m 0
 372 255 431 314 505 314 c 0
 569.533 314 623.42 269.13 636.15 209.235 c 0
 638.019 200.449 639.001 191.339 639.001 182 c 0
 639 109 579.001 51 505.001 51 c 0
 440.58 51 387.526 94.9561 374.871 154.497 c 0
 372.988 163.351 372 172.55 372.001 182 c 0
113 526 m 0
 112.999 519.587 113.653 513.384 114.908 507.476 c 0
 121.877 474.692 147.413 451 183 451 c 0
 222 451 255 482 255 526 c 0
 255.001 531.202 254.448 536.316 253.396 541.271 c 0
 246.552 573.466 218.53 599 183 599 c 0
 145 599 113.001 565 113 526 c 0
51 526 m 0
 51 599 110 658 184 658 c 0
 248.534 658 302.419 613.13 315.15 553.235 c 0
 317.018 544.449 318 535.339 318 526 c 0
 318 453 258 395 184 395 c 0
 119.579 395 66.5273 438.956 53.8711 498.497 c 0
 51.9893 507.351 51 516.55 51 526 c 0
207 67 m 1
 134 67 l 1
 486.001 644 l 0
 556.001 644 l 1
 207 67 l 1
EndSplineSet
EndChar
StartChar: ampersand
Encoding: 6 38 6
OldEncoding: 38
Width: 606
Flags: HW
HStem: -14 69<257.324 290> 199 68<321 426 321 566> 359 69<272 326> 660 69<277 290>
VStem: 49 77<210 227> 84 77<531.085 563> 426 81<193 199> 426 140<198 198.938>
Back
501 123 m 13xd0
 425 146 l 21
 399.999 92 341.999 55 288.999 55 c 5
 202 55 127 112 127 207 c 4xd0
 127 305 209.27 357 287 357 c 6
 325 357 l 5
 325 418 l 5
 277 418 l 4
 216 418 160 470 160 545 c 4
 160 612 218 663 278 663 c 6
 281 663 l 4
 335 663 375 632 394.999 586 c 13
 462 617 l 21
 428 684 360 731 278 731 c 4
 180 731 83 656 83 545 c 4xe0
 83 459 139 405 172 388 c 5
 125.361 373.9 50 304 50 207 c 4
 50 78 155 -14 289 -14 c 5
 365 -14 463 35 501 123 c 13xd0
EndSplineSet
Fore
396 586 m 17xf4
 373 631 343 660 277 660 c 1
 214 660 161 615 161 547 c 0xf4
 161 474.869 221.083 428 277 428 c 2
 326 428 l 1
 326.001 359 l 1
 279.001 359 l 2
 188.001 359 126 308 126 210 c 0
 126 111 202 55 274.001 55 c 0
 357.001 55 415.999 125 416 199 c 1xfa
 321 199 l 1
 321 267 l 1
 566 267 l 1
 566 198 l 1xf1
 497 198 l 1
 497 116 429 -14 274 -14 c 0
 156 -14 49 84 49 210 c 0xfa
 49 320 129.001 386 178 397 c 1
 131 417 84 465 84 547 c 0
 84 639 159 729 277 729 c 0
 367 729 431 678 462 618 c 9
 396 586 l 17xf4
EndSplineSet
EndChar
StartChar: quotesingle
Encoding: 7 39 7
OldEncoding: 39
Width: 187
Flags: HW
Fore
73 533 m 5
 62.999 716 l 5
 63.001 740.105 80.6631 753.054 98.0635 753.054 c 0
 98.709 753.054 99.3555 753.036 100 753 c 4
 115.55 753 131.101 744.044 135.045 725.486 c 0
 135.667 722.562 135.999 719.402 135.999 716 c 5
 126 533 l 5
 125 518 111 510 99 510 c 4
 88.083 510 76.3379 515.794 73.5547 528.888 c 0
 73.2783 530.186 73.0898 531.557 73 533 c 5
EndSplineSet
EndChar
StartChar: parenleft
Encoding: 8 40 8
OldEncoding: 40
Width: 268
Flags: HW
VStem: 20 74<326 392>
Fore
136 -41 m 1
 67.4174 64.4469 20 206.048 20 361 c 0
 20 487 59 636 136 757 c 1
 223 757 l 1
 133 626 94 487 94 356 c 0
 94 207.811 151.979 62.6064 223 -41 c 1
 136 -41 l 1
EndSplineSet
EndChar
StartChar: parenright
Encoding: 9 41 9
OldEncoding: 41
Width: 262
Flags: HW
VStem: 173 74<355 386>
Fore
130 -41 m 1
 44 -41 l 1
 128 82 173 227 173 355 c 0
 173.003 495.584 116.196 650.828 44 757 c 1
 130 757 l 5
 195.241 654.479 247 504.046 247 355 c 0
 247 221 209 80 130 -41 c 1
EndSplineSet
EndChar
StartChar: asterisk
Encoding: 10 42 10
OldEncoding: 42
Width: 446
Flags: HW
HStem: 278 69<33 173 292 425>
DStem: 106 469 165 504 177 347 236 381 178 278 236 243 110 164 170 129 236 243 296 278 302 129 361 165 306 506 365 470 236 381 297 347
Fore
291 278 m 1
 356 165 l 1
 297 129 l 1
 231 243 l 1
 165 129 l 1
 105 164 l 1
 173 278 l 1
 33 278 l 1
 33 347 l 1
 172 347 l 1
 101 469 l 1
 160.001 504 l 1
 231 381 l 1
 301 506 l 1
 359.999 470 l 1
 292 347 l 1
 425 347 l 1
 425 278 l 1
 291 278 l 1
EndSplineSet
EndChar
StartChar: plus
Encoding: 11 43 11
OldEncoding: 43
Width: 437
Flags: HW
HStem: 278 69<38 188 257 407>
VStem: 188 69<126 278 347 499>
Fore
38 347 m 1
 188 347 l 1
 187.999 499 l 1
 256.999 499 l 1
 257 347 l 1
 407 347 l 1
 407 278 l 1
 257 278 l 1
 257 126 l 1
 188 126 l 1
 188 278 l 1
 38 278 l 1
 38 347 l 1
EndSplineSet
EndChar
StartChar: comma
Encoding: 12 44 12
OldEncoding: 44
Width: 195
Flags: HW
Fore
155.499 46 m 1
 155.5 -31 106 -91 95 -108 c 1
 68 -93 l 1
 78 -78 103 -41 103 -6 c 0
 77.7617 -6 56.6641 11.459 51.6367 35.1094 c 0
 50.8916 38.6152 50.5 42.2578 50.5 46 c 0
 50.5 74.9805 74.0195 98.5 103 98.5 c 0
 128.224 98.5 149.311 80.6836 154.354 56.9561 c 0
 155.104 53.4219 155.5 49.7568 155.499 46 c 1
EndSplineSet
EndChar
StartChar: hyphen
Encoding: 13 45 13
OldEncoding: 45
Width: 423
Flags: HW
HStem: 275 69<53 384>
Fore
53 344 m 1
 384 344 l 1
 384 275 l 1
 53 275 l 1
 53 344 l 1
EndSplineSet
EndChar
StartChar: period
Encoding: 14 46 14
OldEncoding: 46
Width: 198
Flags: HW
Back
27.1055 67.7627 m 4
 27.1055 105.167 57.4629 135.525 94.8672 135.525 c 4
 132.272 135.525 162.63 105.167 162.63 67.7627 c 4
 162.63 30.3574 132.272 0 94.8672 0 c 4
 57.4629 0 27.1055 30.3574 27.1055 67.7627 c 4
EndSplineSet
Fore
50.5 46 m 0
 50.5 74.9805 74.0195 98.5 103 98.5 c 0
 128.224 98.5 149.311 80.6836 154.354 56.9561 c 0
 155.104 53.4219 155.5 49.7568 155.499 46 c 0
 155.499 17.0195 131.98 -6.5 103 -6.5 c 0
 77.7764 -6.5 56.6895 11.3164 51.6465 35.0439 c 0
 50.8945 38.5781 50.5 42.2432 50.5 46 c 0
EndSplineSet
EndChar
StartChar: slash
Encoding: 15 47 15
OldEncoding: 47
Width: 395
Flags: HW
HStem: 0 21G<-11 66>
DStem: 344 754 421 754 -6 0 71 0
Fore
66 0 m 1
 -11 0 l 1
 339 754 l 0
 416 754 l 1
 66 0 l 1
EndSplineSet
KernsSLIF: 15 -70 0 0
EndChar
StartChar: zero
Encoding: 16 48 16
OldEncoding: 48
Width: 555
Flags: HW
HStem: -15 69<280 290> 660 69<284 290>
VStem: 49 77<355 386> 435 77<355 386>
Fore
49 355 m 1
 49 555 136 729 284 729 c 1
 396.203 729 469.322 628.992 498.13 493.466 c 0
 507.32 450.228 512 403.374 512 355 c 1
 512 156 428 -14 280 -14 c 5
 166.624 -14 91.3936 85.3486 62.3984 221.76 c 0
 53.543 263.42 49 308.444 49 355 c 1
126 355 m 1
 126 314.373 130.105 271.158 138.742 230.527 c 0
 159.017 135.144 204.263 55 280.001 55 c 5
 389.001 55 435 219 435 355 c 1
 435 398.316 430.801 444.732 421.613 487.956 c 0
 401.743 581.441 358.537 660 284 660 c 1
 176 660 126 492 126 355 c 1
EndSplineSet
EndChar
StartChar: one
Encoding: 17 49 17
OldEncoding: 49
Width: 555
Flags: W
HStem: 0 21G<284 361> 691 20G<285 361>
VStem: 284 77<0 711>
DStem: 285 711 284 589 138 524 196.999 475
Fore
284 589 m 1
 196.999 475 l 1
 138 524 l 1
 285 711 l 1
 361 711 l 1
 361 0 l 1
 284 0 l 1
 284 589 l 1
EndSplineSet
EndChar
StartChar: two
Encoding: 18 50 18
OldEncoding: 50
Width: 555
Flags: W
HStem: 0 69<143 496> 661 69<278 294>
VStem: 53 90<0 69>
Back
54.5947 492.06 m 4
 54.5947 623.265 151.739 729.75 271.435 729.75 c 4
 391.131 729.75 488.275 623.265 488.275 492.06 c 4
 488.275 360.855 391.131 254.37 271.435 254.37 c 4
 151.739 254.37 54.5947 360.855 54.5947 492.06 c 4
165.1 492.06 m 4
 165.1 568.021 212.738 629.67 271.435 629.67 c 4
 330.132 629.67 377.77 568.021 377.77 492.06 c 4
 377.77 416.1 330.132 354.45 271.435 354.45 c 4
 212.738 354.45 165.1 416.1 165.1 492.06 c 4
EndSplineSet
Fore
128 542 m 9
 59.999 569 l 17
 85 658 179 730 278 730 c 0
 381 730 482.999 664 482.999 514 c 0
 482.999 377 336.278 298.04 289 264 c 0
 239 228 143 134 143 69 c 1
 496 69 l 21
 496 0 l 5
 53 0 l 1
 53 159 163 258 266.001 330 c 0
 318.365 366.604 407.999 415 407.999 514 c 0
 407.999 610 343 661 278 661 c 0
 216 661 153 621 128 542 c 9
EndSplineSet
EndChar
StartChar: three
Encoding: 19 51 19
OldEncoding: 51
Width: 550
Flags: HW
HStem: -14 69<267 281> 663 68<262 280>
VStem: 396 77<550 563> 429 77<207 211>
Back
12.5098 525.42 m 4
 12.5098 645.115 109.654 729.75 229.35 729.75 c 4
 349.046 729.75 446.19 645.115 446.19 525.42 c 4
 446.19 405.725 349.046 321.09 229.35 321.09 c 4
 109.654 321.09 12.5098 405.725 12.5098 525.42 c 4
110.505 525.42 m 4
 110.505 591.022 163.748 631.755 229.35 631.755 c 4
 294.952 631.755 348.195 591.022 348.195 525.42 c 4
 348.195 459.817 294.952 419.085 229.35 419.085 c 4
 163.748 419.085 110.505 459.817 110.505 525.42 c 4
229.35 525.42 m 29
11.4678 202.245 m 4
 11.4678 321.94 108.611 419.085 228.308 419.085 c 4
 348.003 419.085 445.147 321.94 445.147 202.245 c 4
 445.147 82.5488 348.003 -14.5947 228.308 -14.5947 c 4
 108.612 -14.5947 11.4678 82.5488 11.4678 202.245 c 4
109.463 202.245 m 4
 109.463 267.848 162.705 321.09 228.308 321.09 c 4
 293.91 321.09 347.152 267.848 347.152 202.245 c 4
 347.152 136.643 293.91 83.4004 228.308 83.4004 c 4
 162.705 83.4004 109.463 136.643 109.463 202.245 c 4
228.308 202.245 m 29
EndSplineSet
Fore
55 123 m 13xd0
 131 146 l 21
 156.001 92 214.001 55 267.001 55 c 5
 354 55 429 112 429 207 c 4xd0
 429 305 346.73 357 269 357 c 6
 231 357 l 5
 231 418 l 5
 279 418 l 4
 340 418 396 470 396 545 c 4
 396 612 338 663 278 663 c 6
 275 663 l 4
 221 663 181 632 161.001 586 c 13
 94 617 l 21
 128 684 196 731 278 731 c 4
 376 731 473 656 473 545 c 4xe0
 473 459 417 405 384 388 c 5
 430.639 373.9 506 304 506 207 c 4
 506 78 401 -14 267 -14 c 5
 191 -14 93 35 55 123 c 13xd0
EndSplineSet
EndChar
StartChar: four
Encoding: 20 52 20
OldEncoding: 52
Width: 555
Flags: HW
HStem: 0 21G<345 422> 194 69<158 345 422 514> 691 20G<339 345 345 422 422 425>
VStem: 345 77<0 194 263 705>
DStem: 344 711 352 596.423 48 194 163 263
Fore
422 705.688 m 1
 421.999 262 l 9
 513.999 262 l 17
 514 194 l 1
 422 194 l 1
 422 0 l 1
 345 0 l 1
 345 194 l 1
 43 194 l 9
 339 711 l 1
 345 711 l 1
 422 711 l 1
 425 711 l 1
 422 705.688 l 1
346.999 596.423 m 5
 158 263 l 1
 347 263 l 1
 346.999 596.423 l 5
EndSplineSet
EndChar
StartChar: five
Encoding: 21 53 21
OldEncoding: 53
Width: 555
Flags: HW
HStem: -15 69<292 307> 394 66<295 307> 642 69<143 471>
VStem: 436 76<208 242>
DStem: 148 711 212 642 102 384 180 433
Back
109.463 552.525 m 4
 109.463 650.354 189.793 729.75 288.772 729.75 c 4
 387.752 729.75 468.082 650.354 468.082 552.525 c 4
 468.082 454.697 387.752 375.3 288.772 375.3 c 4
 189.793 375.3 109.463 454.697 109.463 552.525 c 4
70.8896 202.245 m 4
 70.8896 321.94 168.034 419.085 287.73 419.085 c 4
 407.426 419.085 504.57 321.94 504.57 202.245 c 4
 504.57 82.5488 407.426 -14.5947 287.73 -14.5947 c 4
 168.034 -14.5947 70.8896 82.5488 70.8896 202.245 c 4
168.885 202.245 m 4
 168.885 267.848 222.128 321.09 287.73 321.09 c 4
 353.332 321.09 406.575 267.848 406.575 202.245 c 4
 406.575 136.643 353.332 83.4004 287.73 83.4004 c 4
 222.128 83.4004 168.885 136.643 168.885 202.245 c 4
287.73 202.245 m 29
EndSplineSet
Fore
295 394 m 1
 217 394 183 359 168 347 c 1
 97 384 l 9
 143 711 l 1
 471 711 l 1
 471 642 l 1
 207 642 l 1
 175 433 l 1
 203 450 240 460 295 460 c 1
 400.899 460 483.112 391.816 505.766 285.241 c 0
 509.852 266.018 512 245.546 511.999 224 c 1
 511.999 98 428 -14 292 -14 c 5
 179 -14 95 58 66 161 c 9
 142 175 l 17
 158.999 125 196.001 55 292.001 55 c 5
 378.001 55 436 124 436 225 c 1
 436 239.139 434.516 252.813 431.745 265.848 c 0
 415.901 340.388 357.985 394 295 394 c 1
EndSplineSet
EndChar
StartChar: six
Encoding: 22 54 22
OldEncoding: 54
Width: 555
Flags: HW
HStem: -15 73<270 288> 346 73<280 288>
VStem: 63 73<192 210> 429 73<199 210>
DStem: 323 740 385 703 150 425 218 404
Back
97.3379 552.525 m 4
 97.3379 650.354 177.668 729.75 276.647 729.75 c 4
 375.627 729.75 455.957 650.354 455.957 552.525 c 4
 455.957 454.697 375.627 375.3 276.647 375.3 c 4
 177.668 375.3 97.3379 454.697 97.3379 552.525 c 4
58.7646 202.245 m 4
 58.7646 321.94 155.909 419.085 275.605 419.085 c 4
 395.301 419.085 492.445 321.94 492.445 202.245 c 4
 492.445 82.5488 395.301 -14.5947 275.605 -14.5947 c 4
 155.909 -14.5947 58.7646 82.5488 58.7646 202.245 c 4
156.76 202.245 m 4
 156.76 267.848 210.003 321.09 275.605 321.09 c 4
 341.207 321.09 394.45 267.848 394.45 202.245 c 4
 394.45 136.643 341.207 83.4004 275.605 83.4004 c 4
 210.003 83.4004 156.76 136.643 156.76 202.245 c 4
275.605 202.245 m 29
EndSplineSet
Fore
429 199 m 1
 429 209.584 427.887 219.97 425.751 230.021 c 0
 411.939 294.999 355.346 346 280 346 c 1
 193 346 136 274 136 201 c 1
 136 190.359 137.102 180.096 139.186 170.289 c 0
 153.36 103.602 213 59 281 59 c 5
 371 59 429.001 130 429 199 c 1
213 404 m 1
 235 413 251.001 419 280.001 419 c 0
 385.471 419 475.745 346.061 497.181 245.217 c 0
 500.337 230.368 502 214.915 502 199 c 1
 501.999 98 415 -14 279 -14 c 5
 166.405 -14 86.8174 66.7666 67.5244 157.532 c 0
 64.542 171.563 63 185.808 63.001 200 c 1
 63 300 122 383 145 425 c 1
 318 740 l 9
 380.001 703 l 17
 213 404 l 1
EndSplineSet
EndChar
StartChar: seven
Encoding: 23 55 23
OldEncoding: 55
Width: 555
Flags: HW
HStem: 0 21G<167 256> 638 73<54 419>
DStem: 424 638 532 711 172 0 261 0
Fore
527 711 m 1
 256 0 l 1
 167 0 l 1
 419 638 l 1
 54 638 l 1
 54 711 l 1
 527 711 l 1
EndSplineSet
EndChar
StartChar: eight
Encoding: 24 56 24
OldEncoding: 56
Width: 555
Flags: HW
HStem: -15 69<284 292> 361 69<286 292> 662 69<285 292>
VStem: 51 77<211 226> 85 77<549 562> 409 77<530.986 562> 446 77<193.601 226>
Back
66.7197 525.42 m 4
 66.7197 645.115 163.864 729.75 283.56 729.75 c 4
 403.256 729.75 500.4 645.115 500.4 525.42 c 4
 500.4 405.725 403.256 321.09 283.56 321.09 c 4
 163.864 321.09 66.7197 405.725 66.7197 525.42 c 4
164.715 525.42 m 4
 164.715 591.022 217.958 631.755 283.56 631.755 c 4
 349.162 631.755 402.405 591.022 402.405 525.42 c 4
 402.405 459.817 349.162 419.085 283.56 419.085 c 4
 217.958 419.085 164.715 459.817 164.715 525.42 c 4
283.56 525.42 m 29
65.6777 202.245 m 4
 65.6777 321.94 162.822 419.085 282.518 419.085 c 4
 402.213 419.085 499.357 321.94 499.357 202.245 c 4
 499.357 82.5488 402.213 -14.5947 282.518 -14.5947 c 4
 162.822 -14.5947 65.6777 82.5488 65.6777 202.245 c 4
163.673 202.245 m 4
 163.673 267.848 216.915 321.09 282.518 321.09 c 4
 348.12 321.09 401.362 267.848 401.362 202.245 c 4
 401.362 136.643 348.12 83.4004 282.518 83.4004 c 4
 216.915 83.4004 163.673 136.643 163.673 202.245 c 4
282.518 202.245 m 29
EndSplineSet
Fore
284.001 55 m 4xf2
 373.001 55 445.999 125 446.001 211 c 1
 446 222.214 444.855 232.924 442.696 243.084 c 0
 427.138 316.278 358.882 361 286 361 c 1
 198 361 128 306 128.001 211 c 0
 128 199.505 129.201 188.36 131.474 177.667 c 0
 146.799 105.569 210.85 55 284.001 55 c 4xf2
161.999 549 m 1xec
 162 538.787 163.01 529.127 164.937 520.061 c 0
 176.973 463.436 224.799 430 286 430 c 1
 356 430 409 473 408.999 549 c 1
 409 558.084 408.093 566.866 406.311 575.249 c 0
 395.54 625.923 352.787 662 285.001 662 c 1
 205.001 662 162 611 161.999 549 c 1xec
285 731 m 1
 385.663 731 464.107 671.236 482.101 586.583 c 0
 484.664 574.526 486 561.965 485.999 549 c 1xec
 486 454 425 412 394 394 c 1
 437.271 374.095 502.262 328.727 518.972 250.116 c 0
 521.569 237.891 523 224.862 523.001 211 c 1
 523 82 412 -14 284 -14 c 5
 172.188 -14 77.9277 60.541 55.873 164.3 c 0
 52.6797 179.323 51 194.938 51.001 211 c 1xf2
 51 319 129 375 176 394 c 1
 145.234 412.293 102.716 443.031 89.2598 506.335 c 0
 86.5332 519.164 84.999 533.329 84.999 549 c 1
 85 652 170 731 285 731 c 1
EndSplineSet
EndChar
StartChar: nine
Encoding: 25 57 25
OldEncoding: 57
Width: 555
Flags: HW
HStem: 294 73<292 296> 655 73<277 295>
VStem: 70 73<514 518> 436 73<500 517>
DStem: 364 309 432 288 197 10 259 -27
Back
117.719 514.89 m 5
 117.719 451.893 166.675 396.171 236.647 396.171 c 5
 304.285 396.171 351.281 451.893 351.281 509.333 c 5
 351.281 581.162 296.987 630.838 233.395 630.838 c 5
 172.93 630.838 117.719 583.247 117.719 514.89 c 5
360.246 349.645 m 5
 331.39 310.112 277.18 296.07 236.647 296.07 c 5
 97.8701 296.07 16.8887 412.277 16.8887 513.963 c 5
 16.8887 634.33 113.508 731.282 233.395 731.282 c 4
 382.473 731.282 461.705 602.272 466.389 464.402 c 4
 467.5 431.674 465.463 396.234 460.66 351.812 c 5
EndSplineSet
Fore
143 514 m 1
 143 503.416 144.112 493.03 146.249 482.979 c 0
 160.061 418.001 216.654 367 292 367 c 1
 379 367 436 439 436 512 c 1
 436 522.641 434.898 532.904 432.814 542.711 c 0
 418.64 609.398 359 655 291 655 c 1
 201 655 143.001 583 143 514 c 1
359 309 m 1
 337 300 320.999 294 291.999 294 c 0
 186.529 294 96.2549 366.94 74.8193 467.784 c 0
 71.6631 482.632 70 498.086 70 514 c 1
 70.001 615 157 728 293 728 c 1
 405.596 728 485.185 646.232 504.477 555.466 c 0
 507.459 541.436 509 527.191 509 513 c 1
 509 413 450 330 427 288 c 1
 254 -27 l 9
 192 10 l 17
 359 309 l 1
EndSplineSet
EndChar
StartChar: less
Encoding: 28 60 28
OldEncoding: 60
Width: 412
Flags: HW
DStem: 46 310 142 309 294 11 391 11 294 603 391 603 46 310 142 309
Fore
289 11 m 1
 41 310 l 1
 289 603 l 1
 386 603 l 1
 137 309 l 1
 386 11 l 1
 289 11 l 1
EndSplineSet
EndChar
StartChar: equal
Encoding: 29 61 29
OldEncoding: 61
Width: 443
Flags: HW
HStem: 175 69<32 423> 354 69<32 423>
Fore
32.001 244 m 1
 423 244 l 1
 423 175 l 1
 32 175 l 1
 32.001 244 l 1
32 423 m 1
 423 423 l 1
 423 354 l 1
 32 354 l 1
 32 423 l 1
EndSplineSet
EndChar
StartChar: greater
Encoding: 30 62 30
OldEncoding: 62
Width: 418
Flags: HW
DStem: 50 603 147 603 298 309 394 310 298 309 394 310 50 10 147 10
Fore
142 10 m 1
 45 10 l 1
 293 309 l 1
 45 603 l 1
 142 603 l 1
 389 310 l 1
 142 10 l 1
EndSplineSet
EndChar
StartChar: question
Encoding: 31 63 31
OldEncoding: 63
Width: 481
Flags: HW
HStem: 662 69<235 253>
VStem: 203 77<176 269> 378 77<534 544>
Back
129.27 533.76 m 0
 129.27 585.552 182.513 629.67 248.115 629.67 c 4
 313.718 629.67 366.96 585.552 366.96 533.76 c 0
 366.96 481.969 313.718 439.935 248.115 439.935 c 0
 182.513 439.935 129.27 481.969 129.27 533.76 c 0
25.0195 533.76 m 0
 25.0195 641.946 124.032 729.75 246.03 729.75 c 0
 368.027 729.75 467.04 641.946 467.04 533.76 c 0
 467.04 425.573 368.027 337.77 246.03 337.77 c 0
 124.032 337.77 25.0195 425.573 25.0195 533.76 c 0
EndSplineSet
Fore
280 269 m 5
 280 176 l 5
 203 176 l 5
 203 271 l 4
 203 381 377.999 402 378 534 c 1
 377.999 545.595 376.88 556.544 374.703 566.786 c 0
 362.047 626.328 313.672 662 242.001 662 c 1
 157.001 662 99 584 99 530 c 1
 28 542 l 1
 39.999 648 128 731 239 731 c 1
 337.232 731 429.311 680.229 450.464 580.71 c 0
 453.429 566.762 455 551.857 455.001 536 c 1
 455 388 280 346 280 269 c 5
EndSplineSet
Ref: 14 46 S 1 0 0 1 143 0
EndChar
StartChar: at
Encoding: 32 64 32
OldEncoding: 64
Width: 793
Flags: HW
HStem: -17 62<393 405> 190 62<393 405> 204 63<622 629> 462 61<393 405> 668 62<393 405>
VStem: 20 62<334 368> 226 63<357 368> 490 61<357 368> 701 63<382 400>
Back
534.906 356.863 m 4
 534.906 402.268 571.756 439.116 617.16 439.116 c 4
 662.564 439.116 699.413 402.268 699.413 356.863 c 4
 699.413 311.459 662.564 274.61 617.16 274.61 c 4
 571.756 274.61 534.906 311.459 534.906 356.863 c 4
473.295 356.535 m 0
 473.295 435.948 537.746 500.4 617.16 500.4 c 0
 696.573 500.4 761.025 435.948 761.025 356.535 c 0
 761.025 277.121 696.573 212.67 617.16 212.67 c 0
 537.746 212.67 473.295 277.121 473.295 356.535 c 0
283.977 356.765 m 0
 283.977 413.998 331.035 461.056 388.269 461.056 c 0
 445.502 461.056 492.561 413.998 492.561 356.765 c 0
 492.561 299.531 445.502 252.473 388.269 252.473 c 0
 331.035 252.473 283.977 299.531 283.977 356.765 c 0
76.9365 356.603 m 0
 76.9365 528.693 215.72 667.477 387.81 667.477 c 0
 559.9 667.477 698.684 528.693 698.684 356.603 c 0
 698.684 184.512 559.9 45.7295 387.81 45.7295 c 0
 215.72 45.7295 76.9365 184.512 76.9365 356.603 c 0
14.5947 356.535 m 0
 14.5947 562.95 181.395 729.75 387.81 729.75 c 0
 594.225 729.75 761.025 562.95 761.025 356.535 c 0
 761.025 150.12 594.225 -16.6797 387.81 -16.6797 c 0
 181.395 -16.6797 14.5947 150.12 14.5947 356.535 c 0
221.01 356.535 m 0
 221.01 448.275 296.07 523.335 387.81 523.335 c 0
 479.55 523.335 554.61 448.275 554.61 356.535 c 0
 554.61 264.795 479.55 189.735 387.81 189.735 c 0
 296.07 189.735 221.01 264.795 221.01 356.535 c 0
EndSplineSet
Fore
573.999 104 m 1xbf80
 612.001 54 l 17
 550 9 475 -17 393 -17 c 0
 213.093 -17 64.1543 109.147 28.251 278.062 c 0
 22.8438 303.501 20 329.908 20 357 c 0
 20 563 186 730 393 730 c 0
 574.545 730 724.246 601.074 757.23 445.891 c 0
 761.674 424.987 764 403.606 763.999 382 c 4
 764 280 685 204 626.999 204 c 0xbf80
 590.999 204 548 225 521.999 253 c 1
 493 214 445 190 393 190 c 0xdf80
 312.89 190 245.668 246.868 229.632 322.31 c 0
 227.252 333.506 226 345.111 226 357 c 0
 226.001 448 301 523 393 523 c 0
 472.103 523 531.984 464.597 547.219 392.922 c 0
 549.703 381.236 551 369.196 551 357 c 0
 551 350.887 551.699 344.647 553.017 338.446 c 0
 560.755 302.044 589.822 267 624 267 c 0
 659 267 701.001 320 700.999 382 c 4
 701 398.604 699.181 415.235 695.689 431.66 c 0
 669.323 555.706 547.538 668 392.999 668 c 0
 217.999 668 82 523 82 355 c 0
 82 333.276 84.3018 311.958 88.6904 291.308 c 0
 118.043 153.215 240.765 45 393 45 c 0
 455 45 527 71 573.999 104 c 1xbf80
289 357 m 0
 289 348.989 289.827 341.271 291.393 333.907 c 0
 301.745 285.202 344.354 252 393 252 c 0xdf80
 453 252 490 300 490 357 c 0
 490 363.81 489.253 370.572 487.846 377.191 c 0
 478.098 423.052 436.695 462 393 462 c 0
 339 462 289 415 289 357 c 0
EndSplineSet
EndChar
StartChar: A
Encoding: 33 65 0
OldEncoding: 65
Width: 636
Flags: HMW
HStem: 237 66<216 438>
DStem: 291 711 322 593 35 0 221.999 303 291 711 200.001 237 35 0 121 0 322 593 353 711 424.999 303 609 0
Fore
322 593 m 1
 221.999 303 l 1
 424.999 303 l 1
 322 593 l 1
443.001 237 m 1
 200.001 237 l 0
 121 0 l 0
 35 0 l 1
 291 711 l 0
 291 711 328.82 711 353 711 c 17
 609 0 l 1
 521 0 l 1
 443.001 237 l 1
EndSplineSet
KernsSLIF: 35 -39 0 0 87 -46 0 0 86 -80 0 0 54 -104 0 0 52 -48 0 0
EndChar
StartChar: B
Encoding: 34 66 1
OldEncoding: 66
Width: 576
Flags: HW
HStem: 0 69<131 311> 344 68<247 287> 642 69<54 263>
VStem: 54 77<0 345 0 643> 410 78<527 529> 449 76<191.742 212>
Back
165 530 m 4
 165 607.28 227.72 670 305 670 c 4
 382.28 670 445 607.28 445 530 c 4
 445 452.72 382.28 390 305 390 c 4
 227.72 390 165 452.72 165 530 c 4
128 198 m 4
 128 295.152 206.848 374 304 374 c 4
 401.152 374 480 295.152 480 198 c 4
 480 100.848 401.152 22 304 22 c 4
 206.848 22 128 100.848 128 198 c 4
EndSplineSet
Fore
136 344 m 1xf4
 136 69 l 1
 292 69 l 1
 409 69 454 140 454 210 c 0
 453.999 220.575 452.973 231.012 450.826 241.113 c 0
 438.761 297.876 391.324 344 292 344 c 1
 279 344 152 344 136 344 c 1xf4
136 643 m 1
 136 412 l 1
 155 412 236 412 252 412 c 1
 393 412 415 484 415.001 527 c 1xf8
 415 534.507 414.33 542.896 412.473 551.634 c 0
 403.691 592.945 368.385 642 252 642 c 1
 237 642 154 643 136 643 c 1
59 711 m 1
 252 711 l 1
 412.262 710.152 474.02 635.246 489.095 564.321 c 0
 491.799 551.602 493 539.012 493.001 527 c 1xf8
 493 447 421.999 382 368.999 382 c 1
 467.916 382 513.154 302.501 525.997 242.08 c 0
 528.734 229.202 530 217.19 530 207 c 1xf4
 530 140 505 0 292 0 c 1
 59 0 l 1
 59 711 l 1
EndSplineSet
EndChar
StartChar: C
Encoding: 35 67 2
OldEncoding: 67
Width: 596
Flags: HW
HStem: -15 69<337 349> 661 69<338 349>
VStem: 44 81<354 370>
Fore
570 143 m 0
 540 65 471 -14 342 -14 c 0
 142 -14 49 164.672 49 354 c 0
 49 544 143 730 343 730 c 0
 472 730 540 648 563.001 583 c 9
 534.531 575.2 490.001 563 490.001 563 c 0
 471 623 409 661 343 661 c 1
 341.721 661.005 l 0
 201 661.005 130 506.509 130 354 c 0
 130 197.337 209 54 342.001 54 c 0
 412.001 54 478 105 498 163 c 9
 526.08 155.2 570 143 570 143 c 0
EndSplineSet
EndChar
StartChar: D
Encoding: 36 68 3
OldEncoding: 68
Width: 596
Flags: HW
HStem: 0 69<131 279> 642 69<54 279>
VStem: 54 77<0 642> 477 81<355 385>
Fore
482 355 m 0
 482 475.995 428 642 256 642 c 1
 136 642 l 1
 136 69 l 1
 256 69 l 1
 426 69 481.999 186 482 355 c 0
563 355 m 0
 563 156 460 0 276 0 c 1
 59 0 l 1
 59 711 l 1
 276 711 l 2
 460 711 563.005 538.494 563 355 c 0
EndSplineSet
EndChar
StartChar: E
Encoding: 37 69 4
OldEncoding: 69
Width: 558
Flags: HW
HStem: 0 69<131 504> 330 69<131 483> 642 69<54 504>
VStem: 54 77<0 330 0 642>
Fore
59 711 m 0
 509 711 l 1
 509 642 l 0
 136 642 l 0
 136.001 399 l 1
 488.001 399 l 1
 488 330 l 0
 136 330 l 0
 136 69 l 0
 509 69 l 0
 509 0 l 0
 59 0 l 1
 59 711 l 0
EndSplineSet
KernsSLIF: 50 20 0 0
EndChar
StartChar: F
Encoding: 38 70 5
OldEncoding: 70
Width: 560
Flags: HW
HStem: 0 21G<54 131> 330 69<131 483> 642 69<54 504>
VStem: 54 77<0 330 0 642>
Fore
59 711 m 1
 509 711 l 1
 509 642 l 25
 136 642 l 25
 136.001 399 l 1
 488.001 399 l 1
 488 330 l 25
 136 330 l 1
 136 0 l 1
 59 0 l 1
 59 711 l 1
EndSplineSet
EndChar
StartChar: G
Encoding: 39 71 6
OldEncoding: 71
Width: 666
Flags: W
HStem: -14 68<342 354> 271 69<333 525> 661 69<343 354>
VStem: 49 81<357 371>
Fore
342 -14 m 0
 152.507 -11.9404 49 165.292 49 357 c 0
 49 523 142 730 343 730 c 0
 452 730 511 684 555.001 615 c 9
 528.871 602.13 488 582 488 582 c 0
 454 629 417 661 343 661 c 1
 202 661 129.999 490 130 357 c 0
 130.005 214.23 202.69 54 342.001 54 c 0
 485 54 526 190 525.999 271 c 1
 333.999 271 l 1
 334 340 l 1
 602 340 l 1
 602 298 l 1
 602 155 526 -16 342 -14 c 0
EndSplineSet
KernsSLIF: 52 -33 0 0
EndChar
StartChar: H
Encoding: 40 72 7
OldEncoding: 72
Width: 585
Flags: HW
HStem: 329 69<131 454> 691 20G<54 131 454 531>
VStem: 54 77<0 329 0 711> 454 77<0 711>
Fore
59 711 m 0
 136 711 l 1
 136.001 398 l 1
 459.001 398 l 1
 459 711 l 1
 536 711 l 1
 536 0 l 1
 459 0 l 1
 459 329 l 0
 136 329 l 1
 136 0 l 1
 59 0 l 1
 59 711 l 0
EndSplineSet
EndChar
StartChar: I
Encoding: 41 73 8
OldEncoding: 73
Width: 217
Flags: HW
HStem: 0 21G<70 147> 691 20G<70 147>
VStem: 70 77<0 711>
Fore
75 0 m 1
 75 711 l 1
 152 711 l 1
 152 0 l 1
 75 0 l 1
EndSplineSet
EndChar
StartChar: J
Encoding: 42 74 9
OldEncoding: 74
Width: 557
Flags: HW
HStem: -10 73<271 275> 691 20G<420 497>
VStem: 420 77<261 711>
Fore
55.001 261 m 0
 124.001 261 l 1
 124.001 243.979 125.854 226.769 129.425 209.972 c 0
 145.991 132.036 199.489 59 276 59 c 5
 370 59 424.999 163 425.001 261 c 2
 425 711 l 1
 502 711 l 1
 502.001 261 l 2
 502 102 410 -14 276 -14 c 5
 166.197 -14 87.0664 70.4268 62.8027 184.576 c 0
 57.6768 208.693 55 234.314 55.001 261 c 0
EndSplineSet
EndChar
StartChar: K
Encoding: 43 75 10
OldEncoding: 75
Width: 605
Flags: W
HStem: 0 21G<59 136 502 603> 691 20G<59 136 501 595>
VStem: 59 77<0 252 0 711>
DStem: 501 711 595 711 136 343 279 392
Fore
59 711 m 0
 136 711 l 1
 136 343 l 1
 501 711 l 1
 595 711 l 1
 279 392 l 1
 603 0 l 1
 502 0 l 1
 228 343 l 1
 136 252 l 1
 136 0 l 1
 59 0 l 1
 59 711 l 0
EndSplineSet
KernsSLIF: 47 -53 0 0
EndChar
StartChar: L
Encoding: 44 76 11
OldEncoding: 76
Width: 540
Flags: HW
HStem: 0 69<130 505> 691 20G<54 131>
VStem: 54 77<0 711>
Fore
59 711 m 1
 136 711 l 1
 136 69 l 1
 510 69 l 1
 510 0 l 1
 59 0 l 1
 59 711 l 1
EndSplineSet
EndChar
StartChar: M
Encoding: 45 77 1
OldEncoding: 77
Width: 763
Flags: HW
HStem: 0 21G<54 129 634 709> 691 20G<54 159 608 709>
VStem: 54 75<0 588> 634 75<0 711>
DStem: 134 588 164 711 343 8 388 102 613 711 639 588 388 102 430 8
Fore
59 0 m 1
 59 711 l 2
 164 711 l 1
 388 102 l 2
 613 711 l 1
 714 711 l 1
 714 0 l 1
 639 0 l 25
 639 588 l 1
 430 8 l 0
 343 8 l 1
 134 588 l 0
 134 0 l 1
 59 0 l 1
EndSplineSet
EndChar
StartChar: N
Encoding: 46 78 2
OldEncoding: 78
Width: 621
Flags: HW
HStem: 0 21G<54 131 496 567> 691 20G<54 129 490 567>
VStem: 54 77<0 581> 490 77<144 711>
DStem: 136 581 134 711 501 0 495 144
Fore
59 0 m 1
 59 711 l 2
 134 711 l 1
 495 144 l 25
 495 711 l 1
 572 711 l 1
 572 0 l 0
 501 0 l 1
 136 581 l 0
 136 0 l 1
 59 0 l 1
EndSplineSet
EndChar
StartChar: O
Encoding: 47 79 3
OldEncoding: 79
Width: 651
Flags: HW
HStem: -15 69<325 345> 661 69<325 345>
VStem: 40 81<354 386> 530 81<354 386>
Fore
535 354 m 0
 535 389.219 531.654 427.499 523.747 464.699 c 0
 502.019 566.926 445.844 661 330 661 c 0
 173 661 126.001 486 126 354 c 1
 126 319.887 129.255 283.197 136.824 247.585 c 0
 158.322 146.443 214.624 55 330.001 55 c 5
 487.001 55 535 223 535 354 c 0
45 354 m 1
 45 511 121 730 330 730 c 1
 493.763 730 576.037 596.821 604.328 463.722 c 0
 612.315 426.142 616 388.568 616 354 c 1
 616 198 539 -14 330 -14 c 5
 166.849 -14 84.2949 116.05 56.2803 247.848 c 0
 48.5791 284.077 45 320.364 45 354 c 1
EndSplineSet
KernsSLIF: 33 -48 0 0 52 -55 0 0
EndChar
StartChar: P
Encoding: 48 80 4
OldEncoding: 80
Width: 537
Flags: HW
HStem: 0 21G<54 131> 308 70<131 263> 642 69<131 247>
VStem: 54 77<0 308 0 642> 420 79<511 529>
Fore
136.001 378 m 1
 237.001 378 l 1
 393.001 378 425.001 448 425 511 c 1
 425 520.403 424.182 530.42 422.025 540.566 c 0
 411.567 589.766 369.645 642 237 642 c 1
 136 642 l 1
 136.001 378 l 1
59 711 m 0
 136 711 l 1
 237 711 l 1
 391.028 710.125 479.955 645.679 499.757 552.518 c 0
 502.581 539.229 504 525.356 504 511 c 0
 504 401 422.001 308 237.001 308 c 1
 136.001 308 l 1
 136 0 l 1
 59 0 l 1
 59 711 l 0
EndSplineSet
KernsSLIF: 33 -67 0 0
EndChar
StartChar: Q
Encoding: 49 81 5
OldEncoding: 81
Width: 669
Flags: HW
HStem: -15 69<311 346> 661 69<311 344>
VStem: 40 81<354 385> 534 81<354 385>
DStem: 349 160 392 217 441 91 489 144 501 46 548 100 585 -16 629 41
Back
621.604 40.8271 m 5
 579.351 -16.0967 l 5
 341.614 160.365 l 5
 383.866 217.288 l 5
 621.604 40.8271 l 5
537.93 354.45 m 0
 537.93 485.805 485.805 660.945 328.388 660.945 c 0
 170.97 660.945 118.845 485.805 118.845 354.45 c 1
 118.845 223.095 172.013 54.21 328.388 54.21 c 1
 484.763 54.21 537.93 223.095 537.93 354.45 c 0
45.8701 354.45 m 1
 45.8701 510.825 118.845 729.75 328.388 729.75 c 1
 537.93 729.75 610.905 510.825 610.905 354.45 c 1
 610.905 198.075 536.888 -14.5947 328.388 -14.5947 c 1
 119.888 -14.5947 45.8701 198.075 45.8701 354.45 c 1
EndSplineSet
Fore
539 354 m 1
 539 389.318 535.598 426.059 528.101 461.33 c 0
 505.454 567.87 445.449 661 329 661 c 1
 194 661 126 511 126 354 c 1
 126 322.723 129.057 287.369 136.534 252.189 c 0
 157.746 152.396 214.528 55 338.001 55 c 1
 371.001 55 418 69 441 92 c 5
 349 161 l 5
 392 218 l 5
 489 145 l 5
 523 193 539 258 539 354 c 1
45 354 m 1
 45 511 125 730 330 730 c 1
 495.803 730 580.099 594.774 608.604 460.664 c 0
 616.376 424.105 620 387.63 620 354 c 1
 620.001 247 586 151 548 101 c 5
 629 42 l 5
 585 -15 l 5
 500.999 47 l 5
 460.001 14 415 -14 336 -14 c 1
 168.396 -14 84.3799 115.644 56.1807 248.311 c 0
 48.543 284.244 45 320.326 45 354 c 1
EndSplineSet
EndChar
StartChar: R
Encoding: 50 82 6
OldEncoding: 82
Width: 538
Flags: HW
HStem: 0 21G<54 131 445.457 534.237> 642 69<131 247>
VStem: 54 77<0 308 0 642> 420 80<511 529>
DStem: 241 308.015 327 316.594 450.457 0 539.237 0
Back
131 378 m 5
 232 378 l 5
 388 378 420 448 420 511 c 5
 420 566 392 642 232 642 c 5
 131 642 l 5
 131 378 l 5
54 711 m 4
 131 711 l 5
 232 711 l 5
 408 710 499 626 499 511 c 4
 499 401 417 308 232 308 c 5
 131 308 l 5
 131 0 l 5
 54 0 l 5
 54 711 l 4
EndSplineSet
Fore
136.001 378 m 1
 237.001 378 l 1
 396.001 378 424.999 452 425 511 c 0
 425 586.932 372.905 642 237 642 c 2
 136 642 l 1
 136.001 378 l 1
450.457 0 m 1
 241 308.015 l 1
 136.001 308 l 1
 136 0 l 1
 59 0 l 1
 59 711 l 0
 136 711 l 1
 237 711 l 2
 389.247 710.163 505 640.363 505 511 c 0
 505 415 436 336 327 316.594 c 1
 539.237 0 l 1
 450.457 0 l 1
EndSplineSet
EndChar
StartChar: S
Encoding: 51 83 7
OldEncoding: 83
Width: 527
Flags: HWO
HStem: -15 69<278 284> 661 69<278 300>
VStem: 56 79<535 546>
Back
37.0195 193 m 4
 37.0195 307.816 143.145 401 278.835 401 c 0
 414.525 401 520.65 307.816 520.65 193 c 0
 520.65 78.1836 414.525 -15 278.835 -15 c 0
 143.145 -15 37.0195 78.1836 37.0195 193 c 4
114.255 194 m 0
 114.255 271.28 187.515 334 277.78 334 c 0
 368.045 334 441.305 271.28 441.305 194 c 0
 441.305 116.72 368.045 54 277.78 54 c 0
 187.515 54 114.255 116.72 114.255 194 c 0
56 540 m 0
 56 644.88 155.008 730 277 730 c 0
 398.992 730 498 644.88 498 540 c 0
 498 435.12 398.992 350 277 350 c 0
 155.008 350 56 435.12 56 540 c 0
135 541 m 0
 135 607.24 198.168 661 276 661 c 0
 353.832 661 417 607.24 417 541 c 0
 417 474.76 353.832 421 276 421 c 0
 198.168 421 135 474.76 135 541 c 0
EndSplineSet
Fore
12 140 m 1
 78 179 l 1
 124 114 172.001 55 263.001 55 c 1
 352.001 55 426 117 426 194 c 1
 426 286 323.612 322.304 237 346 c 0
 161.2 366.738 51 417 51 535 c 0
 51 645 149 730 263 730 c 1
 380 730 439 671 486.999 610 c 1
 426 571 l 1
 394 619 341 661 263 661 c 1
 188 661 130 604 130 535 c 0
 130 446 219.783 431.649 290.999 404 c 0
 381.75 368.769 506 339 505 194 c 0
 504.159 72.0029 395 -13 263 -14 c 1
 154 -13 80 41 12 140 c 1
EndSplineSet
EndChar
StartChar: T
Encoding: 52 84 8
OldEncoding: 84
Width: 607
Flags: HW
HStem: 0 21G<271 348> 642 69<38 271 38 571>
VStem: 271 77<0 642>
Fore
43 711 m 0
 576 711 l 1
 576 642 l 0
 353 642 l 1
 353 0 l 1
 276 0 l 1
 276 642 l 1
 43 642 l 1
 43 711 l 0
EndSplineSet
KernsSLIF: 85 -66 0 0 33 -54 0 0
EndChar
StartChar: U
Encoding: 53 85 9
OldEncoding: 85
Width: 618
Flags: HW
HStem: -15 69<309 327> 691 20G<54 133 485 564>
VStem: 54 79<315 711> 485 79<315 711>
Back
133 711 m 5
 54 711 l 5
 54 323 l 5
 54 117 150 -15 309 -15 c 4
 468.003 -15 564 117 564 323 c 5
 564 711 l 5
 485 711 l 5
 485 323 l 5
 485 142 404 54 309 54 c 5
 214 54 134 142 133 323 c 5
 133 711 l 5
EndSplineSet
Fore
490 711 m 1
 569 711 l 1
 569 315 l 1
 569 109 474 -14 314 -14 c 4
 185.746 -14 99.2578 64.6738 69.9854 202.391 c 0
 62.7393 236.48 59 274.126 59 315 c 1
 59 711 l 1
 138 711 l 1
 138 315 l 1
 138 278.447 141.304 246.013 147.358 217.525 c 0
 171.287 104.951 238.186 55 314.001 55 c 5
 409.001 55 489.999 134 490 315 c 1
 490 711 l 1
EndSplineSet
EndChar
StartChar: V
Encoding: 54 86 10
OldEncoding: 86
Width: 608
Flags: HW
HStem: 0 21G<252 359> 691 20G<34 117 494 574>
DStem: 39 711 122 711 257 0 310 82 499 711 579 711 310 82 364 0
Fore
499 711 m 1
 579 711 l 1
 364 0 l 1
 257 0 l 1
 39 711 l 1
 122 711 l 1
 310 82 l 1
 499 711 l 1
EndSplineSet
KernsSLIF: 69 -32 0 0 33 -119 0 0 37 -34 0 0
EndChar
StartChar: W
Encoding: 55 87 11
OldEncoding: 87
Width: 770
Flags: HW
HStem: 0 21G<147 256 516 623> 691 20G<36 114 657 735>
DStem: 41 711 119 711 152 0 209 89 343 693 391 600 209 89 261 0 391 600 438 693 521 0 572 89 662 711 740 711 572 89 628 0
Fore
41 711 m 1
 119 711 l 5
 209 89 l 0
 343 693 l 1
 438 693 l 0
 572.001 89 l 1
 662 711 l 25
 740 711 l 1
 628 0 l 1
 521 0 l 1
 391 600 l 2
 261 0 l 1
 152 0 l 2
 41 711 l 1
EndSplineSet
KernsSLIF: 69 -13 0 0 33 -47 0 0
EndChar
StartChar: X
Encoding: 56 88 12
OldEncoding: 88
Width: 593
Flags: HW
HStem: 0 21G<34 121 469 562> 691 20G<31 120 470 559>
DStem: 261 356 302 286 39 0 126 0 302 286 343 356 474 0 567 0
Fore
36 711 m 0
 125 711 l 1
 302 415 l 1
 475 711 l 1
 564 711 l 1
 343 356 l 1
 567 0 l 1
 474 0 l 1
 302 286 l 1
 126 0 l 1
 39 0 l 1
 261 356 l 1
 36 711 l 0
EndSplineSet
EndChar
StartChar: Y
Encoding: 57 89 13
OldEncoding: 89
Width: 576
Flags: HW
HStem: 0 21G<249 326> 691 20G<32 114 462 544>
VStem: 249 77<0 365>
DStem: 37 711 119 711 254 365 293 418
Fore
37 711 m 1
 119 711 l 1
 293 418 l 1
 467 711 l 1
 549 711 l 1
 331 365 l 1
 331 0 l 1
 254 0 l 1
 254 365 l 1
 37 711 l 1
EndSplineSet
KernsSLIF: 33 -93 0 0 65 -62 0 0
EndChar
StartChar: Z
Encoding: 58 90 14
OldEncoding: 90
Width: 647
Flags: HW
HStem: 0 69<175 603> 642 69<58 470>
DStem: 475 642 602 711 49 0 180 69
Fore
63 711 m 1
 602 711 l 1
 180 69 l 1
 608 69 l 1
 608 0 l 1
 49 0 l 1
 475 642 l 1
 63 642 l 1
 63 711 l 1
EndSplineSet
EndChar
StartChar: bracketleft
Encoding: 59 91 15
OldEncoding: 91
Width: 306
Flags: HW
HStem: -47 68<137 257> 678 69<64 257>
VStem: 64 73<-47 678>
Fore
257 -47 m 0
 64 -47 l 1
 63.999 747 l 0
 256.999 747 l 1
 257 678 l 1
 137 678 l 1
 137 21 l 1
 257 21 l 1
 257 -47 l 0
EndSplineSet
EndChar
StartChar: backslash
Encoding: 60 92 16
OldEncoding: 92
Width: 396
Flags: HW
HStem: 0 21G<337 420>
DStem: -9 754 75 754 342 0 425 0
Fore
337 0 m 1
 -14 754 l 1
 70 754 l 0
 420 0 l 1
 337 0 l 1
EndSplineSet
KernsSLIF: 60 -70 0 0
EndChar
StartChar: bracketright
Encoding: 61 93 17
OldEncoding: 93
Width: 312
Flags: HW
HStem: -47 69<63 256> 678 69<63 183>
VStem: 183 73<22 747>
Fore
63 -47 m 0
 63 22 l 1
 183 22 l 1
 183 678 l 1
 63 678 l 1
 62.999 747 l 1
 255.999 747 l 0
 256 -47 l 1
 63 -47 l 0
EndSplineSet
EndChar
StartChar: asciicircum
Encoding: 62 94 18
OldEncoding: 94
Width: 453
Flags: HW
HStem: 709 20G<200 264>
DStem: 205 729 238 665 70 562 161 562
Fore
401 561 m 1
 309 561 l 1
 233.001 665 l 1
 156 562 l 0
 65 562 l 1
 200 729 l 1
 264 729 l 1
 401 561 l 1
EndSplineSet
EndChar
StartChar: underscore
Encoding: 63 95 19
OldEncoding: 95
Width: 606
Flags: HW
HStem: -113 69<43 575>
Fore
43 -113 m 1
 43 -44 l 1
 574.999 -44 l 1
 575 -113 l 1
 43 -113 l 1
EndSplineSet
EndChar
StartChar: grave
Encoding: 64 96 20
OldEncoding: 96
Width: 252
Flags: HW
Fore
173.455 566.5 m 5
 55.2881 706.592 l 5
 51.3115 711.865 48.8984 717.268 47.7754 722.549 c 0
 44.6484 737.259 51.5352 751.024 62.5527 758.411 c 4
 68.9512 763.236 76.7812 766.162 84.8281 766.162 c 0
 94.8574 766.162 105.222 761.618 113.573 750.544 c 5
 215.771 598.411 l 5
 217.441 595.86 218.511 593.216 219.075 590.562 c 0
 221.292 580.134 215.7 569.55 208.062 563.791 c 4
 203.329 560.222 197.375 557.87 191.302 557.87 c 0
 185.08 557.87 178.735 560.339 173.455 566.5 c 5
EndSplineSet
EndChar
StartChar: a
Encoding: 65 97 21
OldEncoding: 97
Width: 485
Flags: HW
HStem: -14 66<231 241 479 479> 284 66<231 242> 466 66<235 250>
VStem: 41 75<168 179>
Back
70 720 m 29
 70 -26 l 29
210 716 m 29
 210 -30 l 29
140 -34 m 29
 140 712 l 29
 140 -34 l 29
280 718 m 29
 280 -28 l 29
350 716 m 29
 350 -30 l 29
420 -24 m 29
 420 722 l 29
 420 -24 l 29
70 720 m 29
 70 -26 l 29
210 716 m 29
 210 -30 l 29
140 -34 m 29
 140 712 l 29
 140 -34 l 29
280 718 m 29
 280 -28 l 29
350 716 m 29
 350 -30 l 29
420 -24 m 29
 420 722 l 29
 420 -24 l 29
70 720 m 29
 70 -26 l 29
210 716 m 29
 210 -30 l 29
140 -34 m 29
 140 712 l 29
 140 -34 l 29
280 718 m 29
 280 -28 l 29
350 716 m 29
 350 -30 l 29
420 -24 m 29
 420 722 l 29
 420 -24 l 29
70 720 m 29
 70 -26 l 29
210 716 m 29
 210 -30 l 29
140 -34 m 29
 140 712 l 29
 140 -34 l 29
280 718 m 29
 280 -28 l 29
350 716 m 29
 350 -30 l 29
420 -24 m 29
 420 722 l 29
 420 -24 l 29
70 720 m 29
 70 -26 l 29
210 716 m 29
 210 -30 l 29
140 -34 m 29
 140 712 l 29
 140 -34 l 29
280 718 m 29
 280 -28 l 29
350 716 m 29
 350 -30 l 29
420 -24 m 29
 420 722 l 29
 420 -24 l 29
70 720 m 29
 70 -26 l 29
210 716 m 29
 210 -30 l 29
140 -34 m 29
 140 712 l 29
 140 -34 l 29
280 718 m 29
 280 -28 l 29
350 716 m 29
 350 -30 l 29
420 -24 m 29
 420 722 l 29
 420 -24 l 29
70 720 m 29
 70 -26 l 29
210 716 m 29
 210 -30 l 29
140 -34 m 29
 140 712 l 29
 140 -34 l 29
280 718 m 29
 280 -28 l 29
350 716 m 29
 350 -30 l 29
420 -24 m 29
 420 722 l 29
 420 -24 l 29
70 720 m 29
 70 -26 l 29
210 716 m 29
 210 -30 l 29
140 -34 m 29
 140 712 l 29
 140 -34 l 29
280 718 m 29
 280 -28 l 29
350 716 m 29
 350 -30 l 29
420 -24 m 29
 420 722 l 29
 420 -24 l 29
70 720 m 29
 70 -26 l 29
210 716 m 29
 210 -30 l 29
140 -34 m 29
 140 712 l 29
 140 -34 l 29
280 718 m 29
 280 -28 l 29
350 716 m 29
 350 -30 l 29
420 -24 m 29
 420 722 l 29
 420 -24 l 29
70 720 m 29
 70 -26 l 29
210 716 m 29
 210 -30 l 29
140 -34 m 29
 140 712 l 29
 140 -34 l 29
280 718 m 29
 280 -28 l 29
350 716 m 29
 350 -30 l 29
420 -24 m 29
 420 722 l 29
 420 -24 l 29
70 720 m 29
 70 -26 l 29
210 716 m 29
 210 -30 l 29
140 -34 m 29
 140 712 l 29
 140 -34 l 29
280 718 m 29
 280 -28 l 29
350 716 m 29
 350 -30 l 29
420 -24 m 29
 420 722 l 29
 420 -24 l 29
70 720 m 29
 70 -26 l 29
210 716 m 29
 210 -30 l 29
140 -34 m 29
 140 712 l 29
 140 -34 l 29
280 718 m 29
 280 -28 l 29
350 716 m 29
 350 -30 l 29
420 -24 m 29
 420 722 l 29
 420 -24 l 29
70 720 m 29
 70 -26 l 29
210 716 m 29
 210 -30 l 29
140 -34 m 29
 140 712 l 29
 140 -34 l 29
280 718 m 29
 280 -28 l 29
350 716 m 29
 350 -30 l 29
420 -24 m 29
 420 722 l 29
 420 -24 l 29
70 720 m 29
 70 -26 l 29
210 716 m 29
 210 -30 l 29
140 -34 m 29
 140 712 l 29
 140 -34 l 29
280 718 m 29
 280 -28 l 29
350 716 m 29
 350 -30 l 29
420 -24 m 29
 420 722 l 29
 420 -24 l 29
70 720 m 29
 70 -26 l 29
210 716 m 29
 210 -30 l 29
140 -34 m 29
 140 712 l 29
 140 -34 l 29
280 718 m 29
 280 -28 l 29
350 716 m 29
 350 -30 l 29
420 -24 m 29
 420 722 l 29
 420 -24 l 29
70 720 m 29
 70 -26 l 29
210 716 m 29
 210 -30 l 29
140 -34 m 29
 140 712 l 29
 140 -34 l 29
280 718 m 29
 280 -28 l 29
350 716 m 29
 350 -30 l 29
420 -24 m 29
 420 722 l 29
 420 -24 l 29
70 720 m 25
 70 -26 l 25
210 716 m 25
 210 -30 l 25
140 -34 m 25
 140 712 l 25
 140 -34 l 25
280 718 m 25
 280 -28 l 25
350 716 m 25
 350 -30 l 25
420 -24 m 25
 420 722 l 25
 420 -24 l 25
70 720 m 25
 70 -26 l 25
210 716 m 25
 210 -30 l 25
140 -34 m 25
 140 712 l 25
 140 -34 l 25
280 718 m 25
 280 -28 l 25
350 716 m 25
 350 -30 l 25
420 -24 m 25
 420 722 l 25
 420 -24 l 25
70 720 m 25
 70 -26 l 25
210 716 m 25
 210 -30 l 25
140 -34 m 25
 140 712 l 25
 140 -34 l 25
280 718 m 25
 280 -28 l 25
350 716 m 25
 350 -30 l 25
420 -24 m 25
 420 722 l 25
 420 -24 l 25
70 720 m 25
 70 -26 l 25
210 716 m 25
 210 -30 l 25
140 -34 m 25
 140 712 l 25
 140 -34 l 25
280 718 m 25
 280 -28 l 25
350 716 m 25
 350 -30 l 25
420 -24 m 25
 420 722 l 25
 420 -24 l 25
70 720 m 25
 70 -26 l 25
210 716 m 25
 210 -30 l 25
140 -34 m 25
 140 712 l 25
 140 -34 l 25
280 718 m 25
 280 -28 l 25
350 716 m 25
 350 -30 l 25
420 -24 m 25
 420 722 l 25
 420 -24 l 25
70 720 m 25
 70 -26 l 25
210 716 m 25
 210 -30 l 25
140 -34 m 25
 140 712 l 25
 140 -34 l 25
280 718 m 25
 280 -28 l 25
350 716 m 25
 350 -30 l 25
420 -24 m 25
 420 722 l 25
 420 -24 l 25
70 720 m 25
 70 -26 l 25
210 716 m 25
 210 -30 l 25
140 -34 m 25
 140 712 l 25
 140 -34 l 25
280 718 m 25
 280 -28 l 25
350 716 m 25
 350 -30 l 25
420 -24 m 25
 420 722 l 25
 420 -24 l 25
70 720 m 25
 70 -26 l 25
210 716 m 25
 210 -30 l 25
140 -34 m 25
 140 712 l 25
 140 -34 l 25
280 718 m 25
 280 -28 l 25
350 716 m 25
 350 -30 l 25
420 -24 m 25
 420 722 l 25
 420 -24 l 25
70 720 m 25
 70 -26 l 25
210 716 m 25
 210 -30 l 25
140 -34 m 25
 140 712 l 25
 140 -34 l 25
280 718 m 25
 280 -28 l 25
350 716 m 25
 350 -30 l 25
420 -24 m 25
 420 722 l 25
 420 -24 l 25
70 720 m 25
 70 -26 l 25
210 716 m 25
 210 -30 l 25
140 -34 m 25
 140 712 l 25
 140 -34 l 25
280 718 m 25
 280 -28 l 25
350 716 m 25
 350 -30 l 25
420 -24 m 25
 420 722 l 25
 420 -24 l 25
70 720 m 25
 70 -26 l 25
210 716 m 25
 210 -30 l 25
140 -34 m 25
 140 712 l 25
 140 -34 l 25
280 718 m 25
 280 -28 l 25
350 716 m 25
 350 -30 l 25
420 -24 m 25
 420 722 l 25
 420 -24 l 25
70 720 m 25
 70 -26 l 25
210 716 m 25
 210 -30 l 25
140 -34 m 25
 140 712 l 25
 140 -34 l 25
280 718 m 25
 280 -28 l 25
350 716 m 25
 350 -30 l 25
420 -24 m 25
 420 722 l 25
 420 -24 l 25
70 720 m 25
 70 -26 l 25
210 716 m 25
 210 -30 l 25
140 -34 m 25
 140 712 l 25
 140 -34 l 25
280 718 m 25
 280 -28 l 25
350 716 m 25
 350 -30 l 25
420 -24 m 25
 420 722 l 25
 420 -24 l 25
70 720 m 25
 70 -26 l 25
210 716 m 25
 210 -30 l 25
140 -34 m 25
 140 712 l 25
 140 -34 l 25
280 718 m 25
 280 -28 l 25
350 716 m 25
 350 -30 l 25
420 -24 m 25
 420 722 l 25
 420 -24 l 25
70 720 m 25
 70 -26 l 25
210 716 m 25
 210 -30 l 25
140 -34 m 25
 140 712 l 25
 140 -34 l 25
280 718 m 25
 280 -28 l 25
350 716 m 25
 350 -30 l 25
420 -24 m 25
 420 722 l 25
 420 -24 l 25
70 720 m 25
 70 -26 l 25
210 716 m 25
 210 -30 l 25
140 -34 m 25
 140 712 l 25
 140 -34 l 25
280 718 m 25
 280 -28 l 25
350 716 m 25
 350 -30 l 25
420 -24 m 25
 420 722 l 25
 420 -24 l 25
EndSplineSet
Fore
238.999 284 m 0
 164.999 284 116 231 116 168 c 0
 116 100.851 169.077 52 239 52 c 0
 301 52 355 103 355 168 c 0
 355 237.597 294.648 284 238.999 284 c 0
233.001 350 m 0
 297.001 350 346 298 352.438 273 c 1
 352.439 320 l 1
 352.439 412 311 466 235.001 466 c 0
 189.001 466 147 450 125.001 428 c 1
 87 479 l 1
 121 507 165 532 235 532 c 0
 338.482 532 422.868 458 422.868 320 c 2
 422.868 260 l 0
 422.868 132 l 2
 422.868 76 440.886 52 479 52 c 1
 479 -14 l 1
 415 -14 364 28 355.176 76.1504 c 0
 355 77 l 1
 352 53 303 -14 233 -14 c 0
 129.096 -14 41 57.7002 41 168 c 0
 41 273 133.001 350 233.001 350 c 0
EndSplineSet
KernsSLIF: 86 -60 0 0
EndChar
StartChar: b
Encoding: 66 98 22
OldEncoding: 98
Width: 510
Flags: W
HStem: -14 66<283 288> 467 66<283 287> 690 20G<63 137>
VStem: 63 74<0 710> 401 75<263 274>
Back
70 720 m 29
 70 -26 l 29
210 716 m 29
 210 -30 l 29
140 -34 m 29
 140 712 l 29
 140 -34 l 29
280 718 m 29
 280 -28 l 29
350 716 m 29
 350 -30 l 29
420 -24 m 29
 420 722 l 29
 420 -24 l 29
EndSplineSet
Fore
137 710 m 17
 63 710 l 1
 63 0 l 1
 137 0 l 1
 137 90 l 21
 166.726 43.5264 212.342 -14.0117 282.06 -14.0117 c 0
 282.703 -14.0117 283.351 -14.0078 284 -14 c 1
 407 -14 475.999 125 476 263 c 0
 476 404.138 407.569 533 283 533 c 0
 216 533 164.001 476 137.001 427 c 1
 137 710 l 17
401 263 m 0
 401 149 348 52 283 52 c 1
 227.447 52 160.56 108.062 141.595 197.286 c 0
 137.345 217.278 135 238.936 134.999 262 c 1
 135 404 228 467 283 467 c 0
 357.049 467 401 360.935 401 263 c 0
EndSplineSet
EndChar
StartChar: c
Encoding: 67 99 23
OldEncoding: 99
Width: 450
Flags: HW
HStem: -15 66<257 267> 468 66<260 267>
VStem: 42 75<262 274>
Back
42 260 m 4
 42 411.8 139.664 535 260 535 c 4
 380.336 535 478 411.8 478 260 c 4
 478 108.2 380.336 -15 260 -15 c 4
 139.664 -15 42 108.2 42 260 c 4
117 259 m 4
 117 373.816 181.064 467 260 467 c 4
 338.936 467 403 373.816 403 259 c 4
 403 144.184 338.936 51 260 51 c 4
 181.064 51 117 144.184 117 259 c 4
70 720 m 29
 70 -26 l 29
210 716 m 29
 210 -30 l 29
140 -34 m 29
 140 712 l 29
 140 -34 l 29
280 718 m 29
 280 -28 l 29
350 716 m 29
 350 -30 l 29
420 -24 m 29
 420 722 l 29
 420 -24 l 29
EndSplineSet
Fore
443 395 m 9
 412.19 395 364 395 364 395 c 0
 354 423 312 468 262.001 468 c 1
 181 468 111.999 383 111.999 262 c 0
 111.999 133 179 52 261.001 52 c 0
 322 52 358 106 368 129 c 9
 446 129 l 1
 427 76 364 -14 261 -14 c 1
 131 -14 36.999 110 36.999 262 c 0
 36.999 402 122 534 262 534 c 0
 356 534 415 465 443 395 c 9
EndSplineSet
EndChar
StartChar: d
Encoding: 68 100 24
OldEncoding: 100
Width: 510
Flags: W
HStem: -14 66<248 251> 467 66<251 253> 690 20G<397 471>
VStem: 58 75<263 290> 397 74<0 710>
Back
372 519 m 21
 446 519 l 5
 446 -191 l 5
 372 -191 l 5
 372 80 l 21
 342 33.0964 306 -14.8904 235 -14 c 5
 112 -14 53 125 53 263 c 4
 53 401 110 533 236 533 c 5
 303 533 345 486 372 437 c 5
 372 519 l 21
128 263 m 4
 128 149 171 52 236 52 c 5
 304 52 374 136 374 262 c 5
 374 404 291 467 236 467 c 4
 172 467 128 380 128 263 c 4
70 720 m 25
 70 -26 l 25
210 716 m 25
 210 -30 l 25
140 -34 m 25
 140 712 l 25
 140 -34 l 25
280 718 m 25
 280 -28 l 25
350 716 m 25
 350 -30 l 25
420 -24 m 25
 420 722 l 25
 420 -24 l 25
EndSplineSet
Fore
397 710 m 17
 471 710 l 1
 471 0 l 1
 397 0 l 1
 397 90 l 21
 367.274 43.5264 321.658 -14.0117 251.941 -14.0117 c 0
 251.298 -14.0117 250.65 -14.0078 250 -14 c 0
 128.528 -14 58 121.479 58 263 c 0
 58 401 125 533 251 533 c 1
 318 533 370.001 476 397.001 427 c 1
 397 710 l 17
133 263 m 0
 133 159.964 180.349 52 251 52 c 0
 319 52 398.999 136 398.999 262 c 0
 399.005 399.817 309.371 467 251 467 c 0
 187 467 133 380 133 263 c 0
EndSplineSet
EndChar
StartChar: e
Encoding: 69 101 25
OldEncoding: 101
Width: 495
Flags: HW
HStem: -14 66<248 252> 229 66<120 446> 468 66<248 252>
Back
70 720 m 25
 70 -26 l 25
210 716 m 25
 210 -30 l 25
140 -34 m 25
 140 712 l 25
 140 -34 l 25
280 718 m 25
 280 -28 l 25
350 716 m 25
 350 -30 l 25
420 -24 m 25
 420 722 l 25
 420 -24 l 25
EndSplineSet
Fore
125.656 295 m 1
 380.344 295 l 1
 374.824 382.727 330.021 468 253.001 468 c 0
 174.969 468 131.001 378 125.656 295 c 1
125.641 229 m 1
 133.028 139.664 175.049 52 253 52 c 0
 299.016 52 351.374 79.3281 372.422 118.484 c 0
 437.344 91.6094 l 0
 403.983 27.0625 328.422 -14 253 -14 c 0
 122.672 -14 47.999 108.699 47.999 262 c 0
 48 416 123 534 253 534 c 0
 384.391 534 450.999 404.403 450.999 276 c 0
 450.999 265.24 451.47 240.156 451.47 229 c 1
 125.641 229 l 1
EndSplineSet
KernsSLIF: 84 -26 0 0
EndChar
StartChar: f
Encoding: 70 102 26
OldEncoding: 102
Width: 350
Flags: HW
HStem: 0 21G<129 203> 458 66<61 129 203 299> 657 66<268 270>
VStem: 129 74<0 458 524 557.116>
Back
70 720 m 25
 70 -26 l 25
210 716 m 25
 210 -30 l 25
140 -34 m 25
 140 712 l 25
 140 -34 l 25
280 718 m 25
 280 -28 l 25
350 716 m 25
 350 -30 l 25
420 -24 m 25
 420 722 l 25
 420 -24 l 25
EndSplineSet
Fore
203 458 m 4
 203 0 l 5
 129 0 l 5
 129 458 l 4
 61 458 l 5
 61 524 l 5
 129 524 l 5
 128.569 590 l 4
 128.569 672 217 723 266.001 723 c 4
 308 723 330 705 353 683 c 13
 300 632 l 21
 289 646 280 657 250.999 657 c 5
 226 657 203.458 640 203.458 610 c 4
 203 524 l 5
 299 524 l 5
 299 458 l 5
 203 458 l 4
EndSplineSet
KernsSLIF: 65 -39 0 0 78 -33 0 0 89 -20 0 0 84 -34 0 0 85 -40 0 0 79 -20 0 0
EndChar
StartChar: g
Encoding: 71 103 27
OldEncoding: 103
Width: 499
Flags: W
HStem: -219 66<243 273> -14 66<241 244> 467 67<242 255.496>
VStem: 48 75<244 278> 387 74<-28 89 244 524>
Back
362 519 m 21
 436 519 l 5
 436 -191 l 5
 362 -191 l 5
 362 80 l 21
 332 33.0967 296 -14.8906 225 -14 c 5
 102 -14 43 125 43 263 c 4
 43 401 100 533 226 533 c 5
 293 533 335 486 362 437 c 5
 362 519 l 21
118 263 m 4
 118 149 161 52 226 52 c 5
 294 52 364 136 364 262 c 5
 364 404 281 467 226 467 c 4
 162 467 118 380 118 263 c 4
490 -24 m 25
 490 722 l 25
 490 -24 l 25
70 720 m 25
 70 -26 l 25
210 716 m 25
 210 -30 l 25
140 -34 m 25
 140 712 l 25
 140 -34 l 25
280 718 m 25
 280 -28 l 25
350 716 m 25
 350 -30 l 25
420 -24 m 25
 420 722 l 25
 420 -24 l 25
EndSplineSet
Fore
123 263 m 0
 123 157.665 169.137 52 244.001 52 c 0
 300.001 52 389 124 389 263 c 0
 389 380.397 313.15 467 242 467 c 0
 174 467 123 377 123 263 c 0
387 89 m 5
 368.146 61.2139 320.579 -14.0117 245.73 -14.0117 c 0
 245.155 -14.0117 244.579 -14.0078 243.999 -14 c 1
 243.561 -14.0029 243.123 -14.0049 242.687 -14.0049 c 0
 110.972 -14.0049 48 136.367 48 265 c 0
 48 403 117 534 242 534 c 0
 307 534 360.001 476 387.001 427 c 9
 387 524 l 1
 461 524 l 1
 461 -9 l 2
 461 -142 362 -219 263 -219 c 0
 138.102 -219 68.5439 -123.463 60 -53 c 1
 129.999 -53 l 17
 139.182 -111.973 201.116 -153 259 -153 c 0
 320 -153 387 -110 387 -16 c 0
 387 89 l 5
EndSplineSet
KernsSLIF: 74 57 0 0
EndChar
StartChar: h
Encoding: 72 104 28
OldEncoding: 104
Width: 520
Flags: HW
HStem: 0 21G<63 137 393 467> 471 67<271.092 289> 690 20G<63 137>
VStem: 63 74<0 305 0 710>
Back
137 0 m 13
 63 0 l 5
 63 524 l 5
 137 524 l 5
 137 425 l 21
 164 479 214 538 285 538 c 4
 382 538 466.999 480 466.999 321 c 5
 467 0 l 5
 393 0 l 4
 392.999 321 l 5
 392.999 428 351 471 285.001 471 c 4
 209 471 137 386 137 302 c 4
 137 0 l 13
490 -24 m 25
 490 722 l 25
 490 -24 l 25
70 720 m 25
 70 -26 l 25
210 716 m 25
 210 -30 l 25
140 -34 m 25
 140 712 l 25
 140 -34 l 25
280 718 m 25
 280 -28 l 25
350 716 m 25
 350 -30 l 25
420 -24 m 25
 420 722 l 25
 420 -24 l 25
EndSplineSet
Fore
137 0 m 9
 63 0 l 1
 63 710 l 1
 137 710 l 1
 137 426 l 17
 162 474 209 538 286 538 c 0
 404.247 538 466.999 453 466.999 321 c 1
 467 0 l 1
 393 0 l 0
 392.999 321 l 1
 393.003 404.846 367 471 286.001 471 c 0
 210 471 137 391 137 298 c 0
 137 0 l 9
EndSplineSet
EndChar
StartChar: i
Encoding: 73 105 29
OldEncoding: 105
Width: 210
Flags: W
HStem: 0 21G<73 147> 504 20G<73 147> 605 92<100.596 113>
VStem: 73 74<0 524>
Back
70 720 m 25
 70 -26 l 25
210 716 m 25
 210 -30 l 25
140 -34 m 25
 140 712 l 25
 140 -34 l 25
280 718 m 25
 280 -28 l 25
350 716 m 25
 350 -30 l 25
420 -24 m 25
 420 722 l 25
 420 -24 l 25
EndSplineSet
Fore
64 651 m 0
 64 676 85 697 110 697 c 0
 131.838 697 150.623 680.977 155.026 660.262 c 0
 155.664 657.262 155.999 654.163 156 651 c 0
 156.001 626 135 605 110 605 c 0
 88.1621 605 69.377 621.023 64.9736 641.739 c 0
 64.3359 644.739 64 647.838 64 651 c 0
73 524 m 1
 147 524 l 1
 147 0 l 1
 73 0 l 1
 73 524 l 1
EndSplineSet
EndChar
StartChar: j
Encoding: 74 106 30
OldEncoding: 106
Width: 229
Flags: HW
HStem: -210 66<0.83554 15> 504 20G<92 166> 605 92<129 131>
VStem: 92 74<0 524>
Back
92 56 m 4
 92 514 l 5
 166 514 l 5
 166 56 l 4
 234 56 l 5
 234 -10 l 5
 166 -10 l 5
 166.431 -76 l 4
 166.431 -158 78 -209 28.999 -209 c 4
 -13 -209 -35 -191 -58 -169 c 13
 -5 -118 l 21
 6 -132 15 -143 44.001 -143 c 5
 69 -143 91.542 -126 91.542 -96 c 4
 92 -10 l 5
 -4 -10 l 5
 -4 56 l 5
 92 56 l 4
70 720 m 25
 70 -26 l 25
210 716 m 25
 210 -30 l 25
140 -34 m 25
 140 712 l 25
 140 -34 l 25
280 718 m 25
 280 -28 l 25
350 716 m 25
 350 -30 l 25
420 -24 m 25
 420 722 l 25
 420 -24 l 25
EndSplineSet
Fore
83 651 m 0
 83 676 104 697 129 697 c 0
 152.903 697 174.992 676.963 175 651 c 0
 175.001 626 154 605 129 605 c 0
 105.106 605 83 625.038 83 651 c 0
-58 -169 m 9
 -6 -119 l 1
 6 -130 18 -143 42 -143 c 1
 75 -143 92.4062 -124 92.4062 -83 c 0
 92 0 l 1
 92 524 l 1
 166 524 l 0
 166 0 l 1
 166 -68 l 0
 166 -176 61 -209 27 -209 c 1
 -17 -209 -39 -187 -58 -169 c 9
EndSplineSet
KernsSLIF: 74 39 0 0
EndChar
StartChar: k
Encoding: 75 107 31
OldEncoding: 107
Width: 461
Flags: HMW
HStem: 690 20G<58 132>
VStem: 58 74<0 185 0 710>
DStem: 189 250 233.999 301 374 0 459 0 337 524 422 524 137 284 233.999 301
Back
70 720 m 29
 70 -26 l 29
210 716 m 29
 210 -30 l 29
140 -34 m 29
 140 712 l 29
 140 -34 l 29
280 718 m 29
 280 -28 l 29
350 716 m 29
 350 -30 l 29
420 -24 m 29
 420 722 l 29
 420 -24 l 29
EndSplineSet
Fore
233.999 301 m 1
 459 0 l 1
 374 0 l 1
 189 250 l 1
 137 185 l 1
 137 0 l 1
 63 0 l 1
 63 710 l 1
 137 710 l 1
 137 284 l 17
 337 524 l 1
 422 524 l 1
 233.999 301 l 1
EndSplineSet
EndChar
StartChar: l
Encoding: 76 108 32
OldEncoding: 108
Width: 210
Flags: HW
HStem: 690 20G<68 142>
VStem: 68 74<97 710>
Back
70 720 m 29
 70 -26 l 29
210 716 m 29
 210 -30 l 29
140 -34 m 29
 140 712 l 29
 140 -34 l 29
280 718 m 29
 280 -28 l 29
350 716 m 29
 350 -30 l 29
420 -24 m 29
 420 722 l 29
 420 -24 l 29
EndSplineSet
Fore
147 101 m 1
 147 95.7598 147.481 90.9805 148.405 86.6367 c 0
 154 60.3154 175.816 50 205 50 c 1
 205 -14 l 1
 136.219 -14 89.6133 4.48047 76.623 65.5908 c 0
 74.5049 75.5586 73.2803 86.6602 73 99 c 1
 73 710 l 1
 147 710 l 1
 147 101 l 1
EndSplineSet
EndChar
StartChar: m
Encoding: 77 109 33
OldEncoding: 109
Width: 749
Flags: MW
HStem: 468 67<530.197 560>
VStem: 63 74<0 319 0 524>
Back
137 0 m 9
 63 0 l 1
 63 524 l 1
 137 524 l 1
 137 425 l 17
 164 479 189 538 260 538 c 0
 357 538 416.999 480 416.999 321 c 1
 417 0 l 1
 343 0 l 0
 342.999 321 l 1
 342.999 428 326 471 260.001 471 c 0
 184 471 137 386 137 302 c 0
 137 0 l 9
70 720 m 25
 70 -26 l 25
210 716 m 25
 210 -30 l 25
140 -34 m 25
 140 712 l 25
 140 -34 l 25
280 718 m 25
 280 -28 l 25
350 716 m 25
 350 -30 l 25
420 -24 m 25
 420 722 l 25
 420 -24 l 25
EndSplineSet
Fore
417 0 m 1
 343 0 l 0
 342.999 321 l 1
 342.999 416 330 471 263.001 471 c 0
 182 471 137 382 137 298 c 0
 137 0 l 9
 63 0 l 1
 63 524 l 1
 137 524 l 1
 137 426 l 17
 160 475 186 538 263 538 c 0
 345 538 393 484 407 420 c 1
 437 472 470.179 535 545 535 c 0
 671 535 697.001 448 697.001 319 c 1
 697 0 l 1
 623 0 l 0
 623.001 319 l 1
 623.001 418 608 468 545.001 468 c 0
 478 468 417 406 417 322 c 0
 417 0 l 1
EndSplineSet
EndChar
StartChar: n
Encoding: 78 110 34
OldEncoding: 110
Width: 500
Flags: HW
HStem: 0 21G<63 137 393 467> 468 67<290 304>
VStem: 63 74<0 337 0 524>
Back
137 0 m 13
 63 0 l 5
 63 524 l 5
 137 524 l 5
 137 436 l 21
 153 474 207 538 270 538 c 4
 368.904 538 467.006 440.547 466.999 322 c 5
 467 0 l 5
 393 0 l 4
 393 323 l 6
 393 415.327 328.576 471 269 471 c 4
 199 471 136.999 394 136.999 302 c 4
 137 0 l 13
490 -24 m 25
 490 722 l 25
 490 -24 l 25
70 720 m 25
 70 -26 l 25
210 716 m 25
 210 -30 l 25
140 -34 m 25
 140 712 l 25
 140 -34 l 25
280 718 m 25
 280 -28 l 25
350 716 m 25
 350 -30 l 25
420 -24 m 25
 420 722 l 25
 420 -24 l 25
EndSplineSet
Fore
137 0 m 13
 63 0 l 5
 63 524 l 5
 137 524 l 5
 137 425 l 21
 164 479 214 538 285 538 c 4
 382 538 466.999 480 466.999 321 c 5
 467 0 l 5
 393 0 l 4
 392.999 321 l 5
 392.999 428 351 471 285.001 471 c 4
 209 471 137 386 137 302 c 4
 137 0 l 13
EndSplineSet
EndChar
StartChar: o
Encoding: 79 111 35
OldEncoding: 111
Width: 515
Flags: HW
HStem: -14 66<258 269> 468 66<258 269>
Back
490 -24 m 29
 490 722 l 29
 490 -24 l 29
70 720 m 25
 70 -26 l 25
210 716 m 25
 210 -30 l 25
140 -34 m 25
 140 712 l 25
 140 -34 l 25
280 718 m 25
 280 -28 l 25
350 716 m 25
 350 -30 l 25
420 -24 m 25
 420 722 l 25
 420 -24 l 25
EndSplineSet
Fore
49.999 262 m 0
 50 416 133 534 263 534 c 0
 393.752 534 475.999 414.414 475.999 262 c 0
 476 108 393 -14 263 -14 c 0
 132.487 -14 50.0039 109.088 49.999 262 c 0
124.999 262 m 0
 125.003 160.804 177.181 52 263 52 c 0
 357 52 401 166 400.999 262 c 0
 401.003 362.688 348.999 468 263.001 468 c 0
 175.001 468 125.001 358 124.999 262 c 0
EndSplineSet
KernsSLIF: 88 -26 0 0
EndChar
StartChar: p
Encoding: 80 112 36
OldEncoding: 112
Width: 510
Flags: HW
HStem: -14 66<278 283> 467 66<278 282>
VStem: 58 74<-209 524> 396 75<263 288>
Back
137 0 m 13
 63 0 l 5
 63 524 l 5
 137 524 l 5
 137 425 l 21
 164 479 214 538 285 538 c 4
 382 538 466.999 480 466.999 321 c 5
 467 0 l 5
 393 0 l 4
 392.999 321 l 5
 392.999 428 351 471 285.001 471 c 4
 209 471 137 386 137 302 c 4
 137 0 l 13
70 720 m 25
 70 -26 l 25
210 716 m 25
 210 -30 l 25
140 -34 m 25
 140 712 l 25
 140 -34 l 25
280 718 m 25
 280 -28 l 25
350 716 m 25
 350 -30 l 25
420 -24 m 25
 420 722 l 25
 420 -24 l 25
EndSplineSet
Fore
137 524 m 17
 63 524 l 1
 63 -209 l 1
 137 -209 l 1
 137 100 l 17
 166.726 53.5264 212.342 -14.0117 282.06 -14.0117 c 0
 282.703 -14.0117 283.351 -14.0078 284 -14 c 1
 407 -14 475.999 125 476 263 c 0
 476 404.138 407.569 533 283 533 c 0
 216 533 164.001 466 137.001 417 c 5
 137 524 l 17
401 263 m 0
 401 149 348 52 283 52 c 0
 205.284 52 135.004 147.663 134.999 262 c 0
 135 404 228 467 283 467 c 0
 357.049 467 401 360.935 401 263 c 0
EndSplineSet
EndChar
StartChar: q
Encoding: 81 113 37
OldEncoding: 113
Width: 512
Flags: HW
HStem: -14 66<231 239> 467 66<231 240>
VStem: 382 74<-108 80 439 524>
Back
128 263 m 4
 128 157.665 174.137 52 249.001 52 c 4
 305.001 52 394 124 394 263 c 4
 394 380.397 318.15 467 247 467 c 4
 179 467 128 377 128 263 c 4
392 79 m 5
 373.146 51.2139 325.579 -14.0117 250.73 -14.0117 c 4
 250.155 -14.0117 249.579 -14.0078 248.999 -14 c 5
 248.561 -14.0029 248.123 -14.0049 247.687 -14.0049 c 4
 115.972 -14.0049 53 136.367 53 265 c 4
 53 403 122 534 247 534 c 4
 312 534 365.001 486 392.001 437 c 13
 392 524 l 5
 466 524 l 5
 466 -9 l 6
 466 -142 367 -219 268 -219 c 4
 143.102 -219 73.5439 -123.463 65 -53 c 5
 134.999 -53 l 21
 144.182 -111.973 206.116 -153 264 -153 c 4
 325 -153 392 -110 392 -16 c 4
 392 79 l 5
70 720 m 25
 70 -26 l 25
210 716 m 25
 210 -30 l 25
140 -34 m 25
 140 712 l 25
 140 -34 l 25
280 718 m 25
 280 -28 l 25
350 716 m 25
 350 -30 l 25
420 -24 m 25
 420 722 l 25
 420 -24 l 25
EndSplineSet
Fore
122.999 262 m 0
 122.999 151 172.316 52 241 52 c 0
 298 52 388.999 121 388.999 262 c 0
 388.999 390 308.6 467 239 467 c 0
 177 467 122.999 383 122.999 262 c 0
461 -97 m 2
 461 -136.258 475.161 -153 519 -153 c 1
 519 -219 l 1
 435.342 -219 387 -184.914 387 -100 c 2
 387 90 l 5
 367 57 317 -14 242 -14 c 0
 113.519 -14 48 132 48 264 c 0
 48 402 116 533 238 533 c 0
 313 533 357.001 476 387 429 c 9
 387 524 l 1
 461 524 l 1
 461 -97 l 2
EndSplineSet
KernsSLIF: 74 134 0 0
EndChar
StartChar: r
Encoding: 82 114 38
OldEncoding: 114
Width: 335
Flags: HMW
HStem: 470 67<251 256>
VStem: 63 74<0 321 0 524>
Back
70 720 m 29
 70 -26 l 29
210 716 m 29
 210 -30 l 29
140 -34 m 29
 140 712 l 29
 140 -34 l 29
280 718 m 29
 280 -28 l 29
350 716 m 29
 350 -30 l 29
420 -24 m 29
 420 722 l 29
 420 -24 l 29
EndSplineSet
Fore
312 450 m 1
 301.001 457 286.999 470 259.999 470 c 1
 202.999 470 137 371 137 284 c 0
 137 284 137 110.76 137 0 c 17
 63 0 l 1
 63 524 l 1
 137 524 l 1
 137 420 l 17
 155.001 456 209 537 260 537 c 0
 294 537 320 525 344 510 c 1
 312 450 l 1
EndSplineSet
KernsSLIF: 69 -20 0 0
EndChar
StartChar: s
Encoding: 83 115 39
OldEncoding: 115
Width: 450
Flags: HW
HStem: -14 66<201.662 235> 470 66<217 235>
VStem: 54 75<385 403> 330 75<132.786 148>
Back
53 394 m 4
 53 472.384 129.608 536 224 536 c 4
 318.392 536 395 472.384 395 394 c 4
 395 315.616 318.392 252 224 252 c 4
 129.608 252 53 315.616 53 394 c 4
129 392 m 0
 129 435.056 172.456 470 226 470 c 0
 279.544 470 323 435.056 323 392 c 0
 323 348.944 279.544 314 226 314 c 0
 172.456 314 129 348.944 129 392 c 0
51 145 m 0
 51 232.216 130.296 303 228 303 c 0
 325.704 303 405 232.216 405 145 c 0
 405 57.784 325.704 -13 228 -13 c 0
 130.296 -13 51 57.784 51 145 c 0
125 147 m 0
 125 199.44 170.696 242 227 242 c 0
 283.304 242 329 199.44 329 147 c 0
 329 94.56 283.304 52 227 52 c 0
 170.696 52 125 94.56 125 147 c 0
70 720 m 25
 70 -26 l 25
210 716 m 25
 210 -30 l 25
140 -34 m 25
 140 712 l 25
 140 -34 l 25
280 718 m 25
 280 -28 l 25
350 716 m 25
 350 -30 l 25
420 -24 m 25
 420 722 l 25
 420 -24 l 25
EndSplineSet
Fore
229 239 m 0
 148.354 265.366 59 290 59 390 c 0
 59 480 138 535 229.001 536 c 0
 229.954 536.01 230.904 536.016 231.852 536.016 c 0
 331.831 536.016 386 474 401.908 425.441 c 0
 402 425 l 1
 332.999 411 l 0
 321 439 290.999 470 229.999 470 c 0
 181.999 470 134 437 134 392 c 0
 134 330 199.239 323.186 230 312 c 0
 297.907 287.307 409.999 258 409.999 145 c 0
 409.999 54 327 -14 231 -14 c 0
 127 -14 70 38 47 106 c 1
 116 119 l 1
 134 79 165 52 229 52 c 0
 295 52 334.999 101 334.999 145 c 0
 334.999 201 276.438 223.492 229 239 c 0
EndSplineSet
EndChar
StartChar: t
Encoding: 84 116 40
OldEncoding: 116
Width: 340
Flags: HW
HStem: -14 62<245 279> 458 66<45 114 188 284>
VStem: 114 74<97 458 524 646>
Back
70 720 m 29
 70 -26 l 29
210 716 m 29
 210 -30 l 29
140 -34 m 29
 140 712 l 29
 140 -34 l 29
280 718 m 29
 280 -28 l 29
350 716 m 29
 350 -30 l 29
420 -24 m 29
 420 722 l 29
 420 -24 l 29
EndSplineSet
Fore
119 458 m 0
 50 458 l 1
 50 524 l 1
 119 524 l 0
 119 646 l 1
 193 646 l 0
 193 524 l 0
 289 524 l 1
 289 458 l 1
 193 458 l 0
 193 105 l 2
 193 66.6777 212.535 48 250 48 c 2
 284 48 l 1
 284 -14 l 1
 250 -14 l 2
 152.276 -14 118.996 20.332 119.001 103 c 5
 119 458 l 0
EndSplineSet
EndChar
StartChar: u
Encoding: 85 117 41
OldEncoding: 117
Width: 520
Flags: HW
HStem: -14 67<249 267> 504 20G<58 132 388 462>
VStem: 388 74<0 524>
Back
70 720 m 29
 70 -26 l 29
210 716 m 29
 210 -30 l 29
140 -34 m 29
 140 712 l 29
 140 -34 l 29
280 718 m 29
 280 -28 l 29
350 716 m 29
 350 -30 l 29
420 -24 m 29
 420 722 l 29
 420 -24 l 29
EndSplineSet
Fore
388 524 m 13
 462 524 l 5
 462 0 l 5
 388 0 l 5
 388 88 l 21
 372 50 318 -14 255 -14 c 4
 156.096 -14 57.9941 83.4531 58.001 202 c 5
 58 524 l 5
 132 524 l 4
 132 201 l 6
 132 108.673 196.424 53 256 53 c 4
 326 53 388.001 130 388.001 222 c 4
 388 524 l 13
EndSplineSet
EndChar
StartChar: v
Encoding: 86 118 42
OldEncoding: 118
Width: 500
Flags: HW
HStem: 0 21G<213 287> 504 20G<35 113 390 467>
DStem: 40 524 118 524 218 0 255 95 395 524 472 524 255 95 292 0
Back
70 720 m 29
 70 -26 l 29
210 716 m 29
 210 -30 l 29
140 -34 m 29
 140 712 l 29
 140 -34 l 29
280 718 m 29
 280 -28 l 29
350 716 m 29
 350 -30 l 29
420 -24 m 29
 420 722 l 29
 420 -24 l 29
EndSplineSet
Fore
218 0 m 1
 40 524 l 1
 118 524 l 1
 255 95 l 1
 395 524 l 1
 472 524 l 1
 292 0 l 1
 218 0 l 1
EndSplineSet
EndChar
StartChar: w
Encoding: 87 119 43
OldEncoding: 119
Width: 671
Flags: HW
HStem: 0 21G<168 225 444 504> 504 20G<28 103 569 644>
DStem: 304 520 341 421 202 122 230 0 341 421 378 520 449 0 480 122
Back
70 720 m 29
 70 -26 l 29
210 716 m 29
 210 -30 l 29
140 -34 m 29
 140 712 l 29
 140 -34 l 29
280 718 m 29
 280 -28 l 29
350 716 m 29
 350 -30 l 29
420 -24 m 29
 420 722 l 29
 420 -24 l 29
EndSplineSet
Fore
341 421 m 1
 230 0 l 1
 173 0 l 1
 33 524 l 1
 108 524 l 1
 202 122 l 1
 304 520 l 0
 304 520 349.141 520 378 520 c 17
 480 122 l 1
 574 524 l 17
 649 524 l 1
 509 0 l 1
 449 0 l 1
 341 421 l 1
EndSplineSet
EndChar
StartChar: x
Encoding: 88 120 44
OldEncoding: 120
Width: 440
Flags: HW
HStem: 0 21G<21 107 337 420> 504 20G<22 105 333 416>
DStem: 27 524 110 524 179 263 224 312
Back
70 720 m 29
 70 -26 l 29
210 716 m 29
 210 -30 l 29
140 -34 m 29
 140 712 l 29
 140 -34 l 29
280 718 m 29
 280 -28 l 29
350 716 m 29
 350 -30 l 29
420 -24 m 29
 420 722 l 29
 420 -24 l 29
EndSplineSet
Fore
425 0 m 1
 342 0 l 9
 223.999 215 l 1
 112 0 l 1
 26 0 l 9
 179 263 l 1
 27 524 l 9
 59.3701 524 110 524 110 524 c 0
 223.999 312 l 0
 338 524 l 1
 421 524 l 1
 268.999 265 l 0
 425 0 l 1
EndSplineSet
EndChar
StartChar: y
Encoding: 89 121 45
OldEncoding: 121
Width: 500
Flags: W
HStem: -219 66<234.468 267> -14 67<249 267> 504 20G<58 132 388 462>
VStem: 388 74<-28 86 207 524>
Back
388 524 m 13
 462 524 l 5
 462 0 l 5
 388 0 l 5
 388 88 l 21
 372 50 318 -14 255 -14 c 4
 156.096 -14 57.9941 83.4531 58.001 202 c 5
 58 524 l 5
 132 524 l 4
 132 201 l 6
 132 108.673 196.424 53 256 53 c 4
 326 53 388.001 130 388.001 222 c 4
 388 524 l 13
70 720 m 25
 70 -26 l 25
210 716 m 25
 210 -30 l 25
140 -34 m 25
 140 712 l 25
 140 -34 l 25
280 718 m 25
 280 -28 l 25
350 716 m 25
 350 -30 l 25
420 -24 m 25
 420 722 l 25
 420 -24 l 25
EndSplineSet
Fore
76.5166 -134.483 m 0
 128.414 -92.5859 l 0
 153.999 -123 192 -153 254 -153 c 0
 315 -153 388 -110 388 -16 c 0
 388 -16 388.001 46.2197 388.001 86 c 17
 370 47 315 -14 255 -14 c 0
 162 -14 58.001 74 58.001 209 c 1
 58 524 l 1
 132 524 l 0
 132.001 209 l 1
 131.996 108.251 192 53 257 53 c 0
 320 53 388 123 388 220 c 0
 388 524 l 9
 462 524 l 1
 462 -9 l 2
 462 -142 353 -219 254 -219 c 1
 166 -219 111 -174 76.5166 -134.483 c 0
EndSplineSet
KernsSLIF: 74 57 0 0
EndChar
StartChar: z
Encoding: 90 122 46
OldEncoding: 122
Width: 470
Flags: HW
HStem: 0 69<162 423> 455 69<59 315>
DStem: 320 455 443 524 44 0 167 69
Back
70 720 m 29
 70 -26 l 29
210 716 m 29
 210 -30 l 29
140 -34 m 29
 140 712 l 29
 140 -34 l 29
280 718 m 29
 280 -28 l 29
350 716 m 29
 350 -30 l 29
420 -24 m 29
 420 722 l 29
 420 -24 l 29
EndSplineSet
Fore
167 69 m 1
 428 69 l 1
 428 0 l 1
 44 0 l 1
 320 455 l 2
 64 455 l 1
 64 524 l 1
 443 524 l 1
 167 69 l 1
EndSplineSet
EndChar
StartChar: braceleft
Encoding: 91 123 21
OldEncoding: 123
Width: 365
Flags: HW
Fore
44 356 m 1
 176 398 123 623 149 684 c 1
 178.999 745 242.999 745 309.999 747 c 1
 310 681 l 1
 303 682 296 683 289 683 c 0
 263 683 228 673 215 654 c 1
 210 645 209.001 626 209 604 c 0
 209 597 209 590 209 582 c 0
 209 523 197 376 148 356 c 1
 170.126 347.872 184.707 310.791 194.047 266.853 c 0
 205.391 213.486 209 150.004 208.999 116 c 0
 209 95 l 0
 209 77.6602 209.521 62.9297 211.697 52.6953 c 0
 212.532 48.7646 213.612 45.4971 215 43 c 1
 228.001 24 263 14 289 14 c 0
 296 14 303 15 310 16 c 1
 310 -50 l 1
 243 -48 179 -48 149.001 13 c 1
 147.416 16.7168 146.125 21.1064 145.067 26.0811 c 0
 135.379 71.6602 145.303 166.387 128.89 243.602 c 0
 117.697 296.258 94.2578 340.77 44 356 c 1
EndSplineSet
EndChar
StartChar: bar
Encoding: 92 124 22
OldEncoding: 124
Width: 180
Flags: HW
HStem: 0 21G<61 131> 690 20G<61 131>
VStem: 61 70<0 710>
Fore
61 0 m 17
 61 710 l 1
 131 710 l 1
 131 0 l 9
 61 0 l 17
EndSplineSet
EndChar
StartChar: braceright
Encoding: 93 125 22
OldEncoding: 125
Width: 365
Flags: HW
Fore
331 356 m 1
 199 316 252 77 226 16 c 1
 196 -45 132 -45 65 -47 c 1
 65.001 19 l 1
 72 18 79 17 86 17 c 0
 112 17 147 27 159.999 46 c 1
 164.999 55 166 74 165.999 98 c 0
 166 119 l 0
 166 181 178 338 227 356 c 1
 203.801 365.469 188.896 403.405 179.631 446.992 c 0
 169.327 495.468 166 550.933 166 582 c 0
 166 590 166 597 166 604 c 0
 166 619.82 165.483 634.09 163.333 644.204 c 0
 162.493 648.155 161.404 651.472 160 654 c 1
 147 673 112 683 86 683 c 0
 79 683 72 682 65 681 c 1
 64.999 747 l 1
 131.999 745 195.999 745 226 684 c 1
 227.642 680.148 228.969 675.641 230.048 670.568 c 0
 239.402 626.555 230.047 539.888 245.403 467.642 c 0
 256.305 416.355 279.659 372.336 331 356 c 1
EndSplineSet
EndChar
StartChar: asciitilde
Encoding: 94 126 23
OldEncoding: 126
Width: 359
Flags: HW
Fore
30.999 373 m 17
 52.999 391 81.999 420 119.999 420 c 0
 167.999 420 199 346 250 346 c 1
 284 346 312 372 342 394 c 9
 342 323 l 17
 312 300 286 275 250 275 c 0
 194 275 159.001 349 119.001 349 c 0
 81.001 349 58 324 31 302 c 9
 30.999 373 l 17
EndSplineSet
EndChar
StartChar: cent
Encoding: 97 162 26
OldEncoding: 162
Width: 395
Flags: HW
HStem: 38 160<210 252> 423 167<184 218>
VStem: 39 70<309 327> 186 66<38 134 484 590>
Fore
185.999 136 m 1
 118.176 144.373 60.8682 192.01 44.0195 271.278 c 0
 40.7461 286.677 39 303.27 38.999 321 c 0
 39 426 122.999 470 184 485 c 1
 184 590 l 1
 250 590 l 1
 250 485 l 1
 289.001 475 321 453 347 430 c 9
 329.84 412.06 303 384 303 384 c 0
 289 398 263 423 212 423 c 1
 158 423 108.999 380 109 319 c 0
 109 306.627 110.197 295.044 112.476 284.326 c 0
 124.007 230.075 163.228 198 215 198 c 0
 255 198 289 214 317 250 c 9
 361 206 l 1
 340.999 174 300 149 251.999 134 c 1
 252 38 l 1
 186 38 l 1
 185.999 136 l 1
EndSplineSet
EndChar
StartChar: sterling
Encoding: 98 163 27
OldEncoding: 163
Width: 547
Flags: HW
HStem: 0 66<177 417> 291 66<41 152 232 407> 651 65<291 298>
VStem: 157 75<357 417>
Fore
152 291 m 1
 41 291 l 1
 41 357 l 1
 157 357 l 1
 157.001 586 195 716 290.999 716 c 0
 360.999 716 415 672 451 571 c 1
 381 568 l 1
 371 608 343 651 291 651 c 0
 259 651 232 534 232 456 c 0
 232 441 231.999 411 232 395 c 0
 231.999 382 232 370 232 357 c 1
 407 357 l 1
 407 291 l 1
 229 291 l 1
 223.707 216.919 196.104 123.312 176.999 66 c 1
 422.999 66 l 1
 439 67 456 68 480 101 c 1
 519 45 l 1
 496 10 456 6 417 0 c 1
 71 0 l 1
 87.0322 64.127 145.42 185.721 152 291 c 1
EndSplineSet
EndChar
StartChar: currency
Encoding: 99 164 28
OldEncoding: 164
Width: 418
Flags: HW
HStem: 183 96<31 127 335 397> 462 96<31 90 301 397>
VStem: 31 96<183 246 462 558> 61 66<359.456 375> 301 96<183 279 498 558>
Fore
126.999 373 m 0xd8
 126.999 366.583 127.672 360.335 128.95 354.321 c 0
 137.434 314.406 172.617 284.8 215.2 284.8 c 0
 264.2 284.8 303.4 324 303.4 373 c 0
 303.399 379.417 302.728 385.665 301.449 391.68 c 0
 292.965 431.595 257.784 461.2 215.2 461.2 c 0
 166.2 461.2 127 422 126.999 373 c 0xd8
301 246 m 1
 276.001 229 246 219 214 219 c 0
 182 219 152.001 229 127 246 c 1
 126.999 183 l 1
 31 183 l 1
 31 279 l 1xe8
 93.001 279 l 1
 79.1367 297.022 69.1191 317.926 64.2754 340.714 c 0
 62.1309 350.802 61 361.26 61 372 c 0xd8
 61 406 72.001 437 90 462 c 1
 31 462 l 1
 30.999 558 l 1
 126.999 558 l 1
 127.001 498 l 1xe8
 152 515 182 525 214 525 c 0
 246 525 276 515 301.001 498 c 1
 300.999 558 l 1
 396.999 558 l 1
 397 462 l 1
 338 462 l 1
 350.136 445.146 359.088 425.565 363.635 404.176 c 0
 365.832 393.838 367 383.078 367 372 c 0
 367 337 355 305 335.001 279 c 1
 397.001 279 l 1
 396.999 183 l 1
 300.999 183 l 1
 301 246 l 1
EndSplineSet
EndChar
StartChar: yen
Encoding: 100 165 29
OldEncoding: 165
Width: 542
Flags: HW
HStem: 0 21G<230 304> 162 66<78 230 304 453> 333 66<78 230 332 453>
VStem: 230 74<0 162 228 333>
DStem: 41 682 117 682 209 399 275 406 443 682 519 682 275 406 337 399
Fore
230 333 m 1
 78 333 l 1
 78.001 399 l 1
 204.001 399 l 1
 36 682 l 1
 112 682 l 1
 270 406 l 1
 438 682 l 1
 514 682 l 1
 332.001 399 l 1
 453.001 399 l 1
 453 333 l 1
 304 333 l 1
 304 228 l 1
 453 228 l 1
 453.001 162 l 1
 304.001 162 l 1
 304 0 l 1
 230 0 l 1
 230.001 162 l 1
 78.001 162 l 1
 78 228 l 1
 230 228 l 1
 230 333 l 1
EndSplineSet
EndChar
StartChar: brokenbar
Encoding: 101 166 26
OldEncoding: 166
Width: 149
Flags: HW
HStem: 0 21G<44 114>
VStem: 44 70<0 315 385 700>
Fore
114 315 m 21
 114 0 l 1
 44 0 l 1
 44 315 l 13
 114 315 l 21
44 385 m 17
 44 700 l 1
 114 700 l 1
 114 385 l 9
 44 385 l 17
EndSplineSet
EndChar
StartChar: section
Encoding: 102 167 27
OldEncoding: 167
Width: 335
Flags: HW
HStem: 51 66<161 177> 211 66<212 223> 406 66<116 134> 566 66<169 185>
VStem: 21 74<399 426> 247 79<259 284>
Fore
91.001 468 m 1
 100.121 470.606 110.655 471.999 123 472 c 0
 210.982 472 300.189 403.295 321.315 303.903 c 0
 324.369 289.538 325.999 274.532 326 259 c 0
 326.001 150 257.001 51 171.001 51 c 0
 113.001 51 64.7627 74.9004 25 142 c 9
 98 147 l 17
 111 129 144 117 163 117 c 2
 165 117 l 2
 213 117 245 160 254.999 215 c 0
 255.073 215.404 255.075 215.752 255.013 216.046 c 0
 254.801 217.045 253.84 217.444 252.351 217.444 c 0
 246.369 217.444 231.856 211.002 223.001 211 c 0
 137.542 211 49.293 263.774 26.5859 370.604 c 0
 22.9551 387.685 20.999 406.149 21 426 c 0
 21 532 83 632 175 632 c 0
 241 632 271 608 314 552 c 1
 239 544 l 0
 227 557 199 566 183 566 c 2
 181 566 l 2
 129 566 102.999 522 91.001 468 c 1
247 284 m 0
 247 290.997 246.217 298.114 244.707 305.217 c 0
 233.918 355.978 186.039 406 122 406 c 0
 110.675 406 103.242 403.71 95.001 399 c 1
 95 393.217 95.6562 387.375 96.8965 381.542 c 0
 108.091 328.874 166.883 277 220 277 c 0
 222.74 277 225.808 276.911 228.865 276.911 c 0
 237.978 276.911 247 277.702 247 284 c 0
EndSplineSet
EndChar
StartChar: dieresis
Encoding: 103 168 27
OldEncoding: 168
Width: 388
Flags: HW
VStem: 37 92<398.596 411> 267 92<409 411>
Fore
267 409 m 0
 267 434 288 455 313 455 c 0
 334.837 455 353.623 438.977 358.025 418.262 c 0
 358.663 415.261 359 412.163 359 409 c 0
 359 384 338 363 313 363 c 0
 291.163 363 272.377 379.023 267.974 399.739 c 0
 267.336 402.739 266.999 405.838 267 409 c 0
37 408 m 0
 37 433 58 454 83 454 c 0
 104.837 454 123.623 437.977 128.026 417.262 c 0
 128.664 414.262 129 411.163 129 408 c 0
 129 383 108 362 83 362 c 0
 61.1621 362 42.377 378.023 37.9736 398.739 c 0
 37.3359 401.739 37 404.838 37 408 c 0
EndSplineSet
EndChar
StartChar: copyright
Encoding: 104 169 28
OldEncoding: 169
Width: 460
Flags: HW
HStem: 152 56<234 245> 265 55<234 245> 412 55<234 236> 524 56<234 245>
VStem: 20 57<366 377> 133 55<366 368> 391 57<366 377>
Fore
307 298 m 17
 289 280 262 265 233.999 265 c 0
 185.311 265 144.937 299.018 135.226 344.706 c 0
 133.768 351.566 133 358.689 133 366 c 0
 133 422 178 467 234 467 c 0
 262 467 289 456 307 438 c 9
 269 398 l 17
 260 406 247 412 234 412 c 0
 209 412 187.999 391 188 366 c 0
 188.001 362.837 188.336 359.739 188.974 356.738 c 0
 193.377 336.023 212.163 320 234.001 320 c 0
 247.001 320 262 325 271 333 c 9
 307 298 l 17
77 366 m 0
 77 354.622 78.1973 343.518 80.4727 332.81 c 0
 95.5996 261.643 158.378 208 234 208 c 0
 321 208 391.001 279 391 366 c 0
 391 377.378 389.803 388.482 387.526 399.19 c 0
 372.399 470.357 309.622 524 234 524 c 0
 147 524 77 453 77 366 c 0
20 366 m 0
 20 484 116 580 234 580 c 0
 336.73 580 422.784 507.239 443.337 410.546 c 0
 446.392 396.173 448 381.271 448 366 c 0
 448 248 352 152 234 152 c 0
 131.271 152 45.2158 224.76 24.6631 321.453 c 0
 21.6074 335.827 20 350.729 20 366 c 0
EndSplineSet
EndChar
StartChar: guillemotleft
Encoding: 106 171 30
OldEncoding: 171
Width: 426
Flags: HW
DStem: 34 404 100 404 128 262 194 262 128 546 194 546 34 404 100 404 230 404 296 404 324 262 390 262 324 546 390 546 230 404 296 404
Fore
319 546 m 1
 385 546 l 1
 291 404 l 1
 384.999 262 l 1
 318.999 262 l 1
 225 404 l 1
 319 546 l 1
123 546 m 1
 189 546 l 1
 95 404 l 1
 188.999 262 l 1
 122.999 262 l 1
 29 404 l 1
 123 546 l 1
EndSplineSet
EndChar
StartChar: logicalnot
Encoding: 107 172 31
OldEncoding: 172
Width: 501
Flags: HW
HStem: 366 70<75 383>
VStem: 383 66<266 436>
Fore
449 266 m 1
 383 266 l 1
 383 366 l 0
 75 366 l 1
 75 436 l 1
 449 436 l 1
 449 266 l 1
EndSplineSet
EndChar
StartChar: registered
Encoding: 109 174 33
OldEncoding: 174
Width: 581
Flags: HW
HStem: 118 57<294 303> 455 38<248 275> 558 57<294 303>
VStem: 46 57<366 375> 208 40<242 352 242 455> 348 39<423 425> 486 57<366 375>
DStem: 285 353 324 359 354 242 403 242
Fore
103 366 m 0
 103 349.682 104.62 334.48 107.62 320.367 c 0
 128.887 220.314 219.508 175 294 175 c 0
 381 175 485.999 244 486 366 c 0
 486 381.043 484.481 395.151 481.678 408.342 c 0
 459.879 510.896 360.452 558 293.999 558 c 0
 206.999 558 103 496 103 366 c 0
46 366 m 0
 46 538 185.001 615 294.001 615 c 0
 411.361 615 512.852 535.646 537.369 420.3 c 0
 541.055 402.964 543 384.815 543 366 c 0
 543 218 419 118 294 118 c 0
 193.246 118 78.6738 182.478 51.835 308.744 c 0
 48.041 326.597 46 345.685 46 366 c 0
247.999 391 m 1
 255.999 391 263.999 391 272.999 391 c 0
 310.999 391 348 394 348 423 c 1
 348 424.908 347.812 426.704 347.454 428.392 c 0
 342.172 453.246 299.455 455 262 455 c 0
 257 455 252 455 248 455 c 1
 247.999 391 l 1
208 493 m 0
 248 493 l 1
 315.301 493 376.652 477.701 385.821 434.565 c 0
 386.598 430.912 387 427.06 387 423 c 0
 387 374 351 366 319 359 c 1
 397.999 242 l 1
 348.999 242 l 1
 280 353 l 1
 248 352 l 1
 247.999 242 l 1
 207.999 242 l 1
 208 493 l 0
EndSplineSet
EndChar
StartChar: macron
Encoding: 110 175 34
OldEncoding: 175
Width: 345
Flags: HW
HStem: 486 66<31 326>
Fore
31 552 m 1
 326 552 l 1
 326.001 486 l 1
 31.001 486 l 1
 31 552 l 1
EndSplineSet
EndChar
StartChar: degree
Encoding: 111 176 28
OldEncoding: 176
Width: 292
Flags: HW
Fore
81.3203 575.05 m 0
 81.3203 569.43 81.9062 563.97 83.0205 558.731 c 0
 90.0078 525.858 117.767 501.73 151.82 501.73 c 0
 191.3 501.73 222.319 534.16 222.32 575.05 c 0
 222.319 580.67 221.734 586.13 220.621 591.369 c 0
 213.633 624.242 185.874 648.37 151.82 648.37 c 0
 112.34 648.37 81.3203 615.94 81.3203 575.05 c 0
24 573 m 0
 24 643 81 699 152 699 c 0
 213.859 699 265.09 656.492 277.257 599.252 c 0
 279.055 590.793 280 582.013 280 573 c 0
 280 503 223 447 152 447 c 0
 90.1416 447 38.9102 489.508 26.7432 546.748 c 0
 24.9453 555.207 24 563.987 24 573 c 0
EndSplineSet
EndChar
StartChar: acute
Encoding: 115 180 29
OldEncoding: 180
Width: 269
Flags: HW
Fore
51.458 601.533 m 1
 151.688 754.972 l 1
 159.938 766.212 170.746 770.946 181.106 770.946 c 0
 189.32 770.946 197.254 767.971 203.409 762.904 c 0
 210.588 757.634 216.028 749.996 217.902 741.182 c 0
 219.814 732.182 218.009 721.956 210.534 711.774 c 1
 94.1836 570.17 l 1
 89.248 564.307 82.6641 561.911 76.1143 561.911 c 0
 69.8174 561.911 63.5508 564.126 58.8086 567.607 c 0
 53.5342 571.479 49.2529 577.202 47.8516 583.794 c 0
 46.6826 589.294 47.5186 595.396 51.458 601.533 c 1
EndSplineSet
EndChar
StartChar: mu
Encoding: 116 181 30
OldEncoding: 181
Width: 490
Flags: HW
HStem: -13 67<229 247>
VStem: 70 70<-193 36 -193 426> 350 70<0 426>
Fore
145 36.1504 m 1
 145 -193 l 1
 75 -193 l 1
 75 426 l 1
 146 426 l 0
 146.001 202 l 0
 146 177.052 148.028 155.732 151.862 137.696 c 0
 164.624 77.6543 197.399 54 242.001 54 c 1
 320.001 54 355 142 355.001 202 c 0
 355 426 l 9
 425 426 l 1
 425 0 l 1
 355 0 l 1
 355 48 l 17
 326 12 285.994 -13 246.999 -13 c 0
 186.999 -13 167 14 145 36.1504 c 1
EndSplineSet
EndChar
StartChar: paragraph
Encoding: 117 182 31
OldEncoding: 182
Width: 562
Flags: HW
HStem: 0 66<315 495> 299 66<315 340.971 315 421> 621 61<398 421>
VStem: 59 70<486 497> 245 70<0 304 378 615> 421 74<66 682>
Fore
315.001 615 m 1
 315 365 l 1
 332 365 402.999 361 421 361 c 1
 421 621 l 1
 404 621 333.001 615 315.001 615 c 1
245 599 m 1
 193 582 129 554 129.001 486 c 1
 129 477.18 129.835 469.141 131.396 461.799 c 0
 143.282 405.876 197.268 390.375 245.001 378 c 1
 245 599 l 1
314.999 66 m 1
 420.999 66 l 1
 421.001 299 l 1
 403.001 299 333 304 315 304 c 1
 314.999 66 l 1
245 0 m 1
 245 314 l 1
 152.845 333.996 80.3398 363.818 62.9736 445.522 c 0
 60.3643 457.796 59.001 471.241 59.001 486 c 0
 59 618 223 682 399 682 c 1
 495 682 l 0
 495 0 l 1
 245 0 l 1
EndSplineSet
EndChar
StartChar: cedilla
Encoding: 119 184 30
OldEncoding: 184
Width: 231
Flags: HW
Fore
57 -93 m 1
 72 -82 103.001 -60 103 -42 c 0
 103 -39.5596 102.744 -37.2119 102.253 -34.9043 c 0
 99.5283 -22.083 89.5596 -10.4922 76 9 c 0
 139 36 l 0
 156.044 19.7686 172.429 -3.05078 177.997 -29.249 c 0
 179.29 -35.3301 180 -41.5938 180 -48 c 0
 180 -102 112 -132 78 -154 c 1
 57 -93 l 1
EndSplineSet
EndChar
StartChar: guillemotright
Encoding: 122 187 33
OldEncoding: 187
Width: 456
Flags: HW
DStem: 53 546 119 546 147 404 213 404 147 404 213 404 53 262 119 262 249 546 315 546 343 404 409 404 343 404 409 404 249 262 315 262
Fore
114 546 m 1
 208 404 l 1
 113.999 262 l 1
 47.999 262 l 1
 142 404 l 1
 48 546 l 1
 114 546 l 1
310 546 m 1
 404 404 l 1
 309.999 262 l 1
 243.999 262 l 1
 338 404 l 1
 244 546 l 1
 310 546 l 1
EndSplineSet
EndChar
StartChar: AE
Encoding: 133 198 37
OldEncoding: 198
Width: 678
Flags: HW
HStem: 0 21G<35.4453 123.015 378.428 670.327> 691 20G<324.218 670.327>
DStem: 329.218 711 382.385 640.37 40.4453 0 283.645 384.957 329.218 711 254.242 315.11 40.4453 0 128.015 0
Fore
383.428 315.11 m 1
 254.242 315.11 l 0
 128.015 0 l 0
 40.4453 0 l 1
 329.219 711 l 1
 675.327 711 l 1
 675.327 638.285 l 0
 459.529 638.285 l 0
 459.53 384.957 l 1
 675.327 384.957 l 1
 675.326 313.025 l 0
 459.529 313.025 l 0
 459.529 71.9326 l 0
 675.327 71.9326 l 1
 675.327 0 l 1
 383.428 0 l 1
 383.428 315.11 l 1
382.385 603.883 m 1
 382.385 640.37 l 1
 283.645 384.957 l 1
 383.428 384.957 l 1
 382.385 603.883 l 1
EndSplineSet
EndChar
StartChar: Eth
Encoding: 143 208 46
OldEncoding: 208
Width: 1938
Flags: HW
HStem: 0 21G<154 229.76 229.76 340.08> 691 20G<154 340.08>
Fore
159 323.44 m 1
 70.5195 323.44 l 1
 70.5186 392.08 l 1
 159 392.08 l 1
 159 711 l 1
 345.08 711 l 1
 493.156 711 598.418 602.923 630.28 453.023 c 0
 636.908 421.84 640.36 388.846 640.36 354.64 c 1
 640.36 156 520.84 0 345.08 0 c 0
 234.76 0 l 1
 159 0 l 1
 159 323.44 l 1
235.8 323.44 m 1
 235.8 69.6797 l 1
 345.08 69.6797 l 1
 470.919 69.6797 563.56 185.12 563.56 354.64 c 1
 563.56 385.253 560.539 414.136 554.847 440.916 c 0
 529.018 562.431 448.194 640.64 345.08 640.64 c 1
 235.801 640.64 l 1
 235.801 392.08 l 1
 382.52 392.08 l 1
 382.521 323.44 l 1
 235.8 323.44 l 1
EndSplineSet
EndChar
StartChar: Oslash
Encoding: 151 216 53
OldEncoding: 216
Width: 1180
Flags: HW
HStem: -14 21G<101 175 290.487 415>
VStem: 42 74<350 371> 514 74<350 371>
DStem: 398.622 634.549 452.143 589.162 173.715 136.078 223.817 83.1133
Fore
195.324 19.9619 m 1
 180 -14 l 1
 106 -14 l 1
 141.9 65.5693 l 1
 99.2646 113.959 72.2373 178.849 58.3643 244.118 c 0
 50.6465 280.426 47 316.852 46.999 350.62 c 1
 46.999 505.12 119 721.42 320 721.42 c 1
 360.831 721.42 396.257 712.494 426.788 696.974 c 1
 441.999 730.69 l 0
 515.999 730.69 l 1
 482.625 656.72 l 1
 534.13 606.606 565.725 533.616 581.257 460.542 c 0
 589.262 422.884 592.999 385.204 592.999 350.62 c 1
 593 196.12 520 -14 320 -14 c 1
 270.975 -14 229.701 -1.375 195.324 19.9619 c 1
223.816 83.1133 m 1
 249.978 64.8164 281.775 53.9805 320 53.9805 c 1
 470 53.9805 519 220.84 518.999 350.62 c 0
 519 385.739 515.725 424.026 507.824 461.194 c 0
 497.738 508.645 480.113 554.274 452.143 589.162 c 1
 223.816 83.1133 l 1
173.716 136.078 m 1
 398.622 634.549 l 1
 376.153 646.573 350.081 653.44 320 653.44 c 0
 169 653.44 121 480.4 120.999 350.62 c 1
 121.001 316.106 124.143 278.971 131.778 243.048 c 0
 139.995 204.393 153.413 167.144 173.716 136.078 c 1
EndSplineSet
EndChar
StartChar: Thorn
Encoding: 157 222 57
OldEncoding: 222
Width: 649
Flags: HW
HStem: 0 21G<66 142.8> 691 20G<66 142.8>
Fore
147.8 232.96 m 1
 279.88 232.96 424.601 258.96 424.601 366.08 c 1
 424.601 373.681 423.852 380.832 422.422 387.559 c 0
 402.33 482.084 247.803 492.96 147.8 492.96 c 1
 147.8 232.96 l 1
71 711 m 0
 147.801 711 l 1
 147.8 561.6 l 1
 314.74 561.6 471.299 527.861 497.549 404.365 c 0
 500.08 392.455 501.4 379.71 501.4 366.08 c 0
 501.399 198.64 327.72 164.32 147.801 164.32 c 1
 147.8 0 l 1
 71 0 l 1
 71 711 l 0
EndSplineSet
EndChar
StartChar: germandbls
Encoding: 158 223 58
OldEncoding: 223
Width: 592
Flags: HW
HStem: 0 21G<40 111.98>
Fore
85.1699 562.38 m 1
 118 651 195.319 722.03 319.95 722.03 c 1
 424.5 722.03 513 667.917 533.078 573.458 c 0
 536.341 558.108 537.796 541.692 537.22 524.27 c 1
 537.221 429.51 439.431 380.07 380.721 364.62 c 1
 430.48 352.641 523.062 307.172 542.018 218.002 c 0
 544.249 207.503 545.46 196.398 545.46 184.67 c 1
 545.46 35 440.46 -14.4199 298.32 -14.4199 c 1
 266.39 -14.4199 240.64 -5.15039 207.68 11.3301 c 9
 251.97 71.0703 l 17
 268.45 64.8896 283.899 53.5596 298.319 53.5596 c 1
 394.109 53.5596 473.48 77 473.479 184.67 c 1
 473.479 192.089 472.699 199.308 471.211 206.307 c 0
 455.185 281.706 357.133 331.66 269.48 331.66 c 1
 262.271 331.66 257.119 331.66 251.971 331.66 c 0
 245.789 331.66 239.609 331.66 231.37 328.57 c 1
 231.37 402.73 l 1
 238.58 400.67 243.729 400.67 248.88 400.67 c 0
 255.06 400.67 261.24 400.67 269.481 400.67 c 1
 352.91 400.67 464.21 448.05 464.21 524.27 c 1
 464.211 537.797 462.97 550.201 460.565 561.514 c 0
 446.857 626.006 395.31 655.08 319.949 655.08 c 1
 220.039 655.08 178.001 606 154.06 539.72 c 1
 118 432 126.251 151.41 116.98 0 c 1
 45 0 l 1
 60.4502 176.13 49 453 85.1699 562.38 c 1
EndSplineSet
EndChar
StartChar: ae
Encoding: 165 230 63
OldEncoding: 230
Width: 726
Flags: HW
HStem: -14 66<208 212 470.053 487> 229 66<377 665> 294 66<208 212> 466 66<210 212 470.487 487>
VStem: 36 74<173 195>
Back
414.656 295 m 5
 673.344 295 l 5
 664.672 381.516 622.031 468 544 468 c 4
 465.969 468 423.328 381.516 414.656 295 c 5
414.641 229 m 5
 423.281 141.719 465.938 52 544 52 c 4
 590.016 52 622.375 79.3281 643.422 118.484 c 4
 708.344 91.6094 l 4
 674.984 27.0625 619.422 -14 544 -14 c 5
 414 -14 343 108 343 262 c 4
 343 416 414 534 544 534 c 4
 674 534 745 416 745 262 c 4
 745 251.24 744.458 240.156 743.469 229 c 5
 414.641 229 l 5
228 294 m 4
 154 294 108 236 108 173 c 4
 108 110 154 52 228 52 c 4
 290 52 348 108 348 173 c 5
 348 238 290 294 228 294 c 4
228 360 m 4
 296 360 336 332 350 308 c 5
 349.439 330 l 4
 349.439 405 304 466 230 466 c 4
 184 466 142 450 120 428 c 13
 105.18 447.5 82 478 82 478 c 4
 116 506 160 532 230 532 c 4
 326.845 532 415.868 461 415.868 330 c 4
 415 270 l 4
 416 132 l 5
 416 96 430 56 472 56 c 5
 472 -10 l 5
 412 -10 373 4 364 49 c 5
 350 26 308 -14 228 -14 c 5
 118 -14 38 68 38 173 c 4
 38 278 128 360 228 360 c 4
EndSplineSet
Fore
212.999 294 m 0xb8
 138.999 294 115 236 115 173 c 0
 115 158.612 116.252 144.485 119.065 131.25 c 0
 128.569 86.5332 155.9 52 213 52 c 0
 275 52 311 108 311 173 c 1
 311 184.844 309.806 196.389 307.476 207.351 c 0
 297.018 256.548 263.702 294 212.999 294 c 0xb8
352.172 444.129 m 1
 386.085 499.773 418.984 534 489 534 c 0
 586.666 534 640.872 467.398 661.795 368.966 c 0
 668.722 336.379 672 300.303 671.999 262 c 0
 672 251.234 670.469 240.156 670.47 229 c 1
 382.298 229 l 1xd8
 382.297 212.664 383.711 186.3 389.545 158.854 c 0
 400.495 107.335 427.021 52 489 52 c 0
 535.016 52 547.374 79.3281 568.422 118.484 c 0
 633.344 91.6094 l 0
 599.983 27.0625 564.422 -14 489 -14 c 0
 410.844 -14 385.021 27.0371 351 80 c 1
 325 34 307 -14 213 -14 c 0
 121.385 -14 63.0664 42.8799 46.1309 122.555 c 0
 42.7324 138.544 41 155.451 41 173 c 0
 41 278 113.001 360 213.001 360 c 0
 275.223 360 294 337 313 309 c 1
 313.914 317.082 310.916 330.206 312.264 337.988 c 1
 312.264 354.69 310.843 370.591 307.748 385.151 c 0
 297.632 432.744 269.639 466 215.001 466 c 0
 169.001 466 147 450 125.001 428 c 9
 110.18 447.5 87 478 87 478 c 0
 121 506 145 532 215 532 c 0
 278.279 532 318.223 501.688 352.172 444.129 c 1
382.364 295 m 1
 596.344 295 l 1
 594.216 316.228 591.368 337.454 587.128 357.401 c 0
 574.088 418.75 547.886 468 489.001 468 c 0
 409.001 468 384.001 369 382.364 295 c 1
EndSplineSet
EndChar
StartChar: igrave
Encoding: 171 236 68
OldEncoding: 236
Width: 209
Flags: HW
HStem: 0 21G<68 142> 504 20G<68 142>
VStem: 68 74<0 524>
Fore
73 524 m 1
 147 524 l 1
 147 0 l 1
 73 0 l 1
 73 524 l 1
EndSplineSet
Ref: 64 96 S 1 0 0 1 -84 7
EndChar
StartChar: iacute
Encoding: 172 237 69
OldEncoding: 237
Width: 206
Flags: HW
HStem: 0 21G<68 142> 504 20G<68 142>
VStem: 68 74<0 524>
Fore
73 524 m 1
 147 524 l 1
 147 0 l 1
 73 0 l 1
 73 524 l 1
EndSplineSet
Ref: 115 180 S 1 0 0 1 37 -4
EndChar
StartChar: icircumflex
Encoding: 173 238 70
OldEncoding: 238
Width: 434
Flags: HW
HStem: 0 21G<186 260> 504 20G<186 260> 694 20<191 255>
VStem: 186 74<0 524>
DStem: 196 714 229 650 61 547 152 547
Fore
191 524 m 1
 265 524 l 1
 265 0 l 1
 191 0 l 1
 191 524 l 1
EndSplineSet
Ref: 62 94 N 1 0 0 1 -9 -15
EndChar
StartChar: idieresis
Encoding: 174 239 71
OldEncoding: 239
Width: 326
Flags: HW
HStem: 0 21G<128 202> 504 20G<128 202>
VStem: 4 92<608.596 621> 128 74<0 524> 234 92<619 621>
CounterMasks: 1 00
Fore
133 524 m 1
 207 524 l 1
 207 0 l 1
 133 0 l 1
 133 524 l 1
EndSplineSet
Ref: 103 168 S 1 0 0 1 -33 210
EndChar
StartChar: eth
Encoding: 175 240 72
OldEncoding: 240
Width: 503
Flags: HW
HStem: -14 66<226 244> 386 66<210 228> 642 69<114 148>
VStem: 35 74<209 226> 374 74<220 245>
DStem: 222 630 279 588 156 567 204 518 357 745 404 692 281 677 334 630
Fore
114 222 m 0
 114 205.277 115.688 189.78 118.72 175.514 c 0
 136.178 93.377 198.251 52 240 52 c 0
 315 52 378.999 136 379 222 c 1
 379 233.166 377.814 243.994 375.602 254.406 c 0
 359.185 331.643 286.209 386 221 386 c 1
 161 386 114 295 114 222 c 0
333.999 630 m 1
 370.787 587.958 425.217 504.492 442.195 424.617 c 0
 444.602 413.296 446.255 402.048 446.999 391 c 1
 450.345 341.819 454.318 306.46 453 245 c 1
 453 94 360.041 -14 245 -14 c 0
 127.155 -14 67.0049 57.6436 47.3867 149.943 c 0
 42.3662 173.561 40 198.532 40 224 c 0
 40 350 120.999 452 225.999 452 c 0
 308.999 452 334 413 370.999 380 c 1
 371 390.245 369.461 402.331 366.663 415.492 c 0
 354.17 474.271 316.584 554.501 279 588 c 1
 204 518 l 1
 156 567 l 1
 221.999 630 l 1
 195.999 639 170 642 144 642 c 0
 125 642 106 640 88 638 c 1
 81 710 l 1
 94 711 108 711 121 711 c 0
 176 711 230.001 703 280.999 677 c 1
 356.999 745 l 1
 404 692 l 1
 333.999 630 l 1
EndSplineSet
EndChar
StartChar: oslash
Encoding: 183 248 79
OldEncoding: 248
Width: 500
Flags: HW
HStem: -14 66<248 262> 468 66<248 262>
VStem: 45 74<262 275> 377 74<262 291>
DStem: 325.172 436.844 362.969 376.641 143.047 145.906 180.25 84.7656
Back
47 262 m 4
 47 416 118 534 248 534 c 4
 378 534 449 416 449 262 c 4
 449 108 378 -14 248 -14 c 5
 118 -14 47 108 47 262 c 4
117 262 m 4
 117 166 160 52 248 52 c 4
 342 52 379 166 379 262 c 4
 379 358 336 468 248 468 c 4
 160 468 117 358 117 262 c 4
EndSplineSet
Fore
362.969 376.641 m 1
 180.251 84.7656 l 1
 199.608 64.5312 223.828 52 253 52 c 0
 347 52 382 166 381.999 262 c 0
 382 286.91 379.936 312.762 374.7 337.391 c 0
 371.814 350.967 367.965 364.171 362.969 376.641 c 1
325.172 436.844 m 1
 305.906 456.156 281.876 468 253.001 468 c 0
 165.001 468 124.001 358 123.999 262 c 0
 124 236.782 126.115 210.326 131.494 185.02 c 0
 134.36 171.536 138.153 158.377 143.048 145.906 c 1
 325.172 436.844 l 1
42 -14 m 1
 98.3594 74.5312 l 1
 80.4727 103.271 66.9277 137.756 58.7871 176.056 c 0
 53.0527 203.035 49.999 231.908 49.999 262 c 0
 50 416 123 534 253 534 c 0
 296.453 534 333.312 520.812 363.142 497.5 c 1
 387.233 536 l 1
 462.733 536 l 1
 407.531 447.812 l 1
 425.581 419.429 439.216 385.192 447.355 346.899 c 0
 452.998 320.35 456 291.851 455.999 262 c 0
 456 108 383 -14 253 -14 c 1
 209.233 -14 172.173 -0.171875 142.234 24.0312 c 1
 118.423 -14 l 1
 42 -14 l 1
EndSplineSet
EndChar
StartChar: thorn
Encoding: 189 254 83
OldEncoding: 254
Width: 490
Flags: HW
HStem: 0 21G<58 132> 80 66<248 269> 561 66<265 283> 690 20G<58 132>
VStem: 58 74<0 152 0 369 0 710> 377 74<335 385>
Fore
137 0 m 17
 63 0 l 1
 63 710 l 1
 137 710 l 1
 137 543 l 17
 169 589 203 627 274 627 c 0
 368.847 627 425.638 549.106 446.667 450.172 c 0
 452.909 420.806 456 389.586 456.001 358 c 0
 456.001 220 413 80 255 80 c 1
 175 80 137 152 137 152 c 0
 137 152 137.001 59.2803 137 0 c 17
382 356 m 0
 382 386.595 379.047 415.533 373.527 441.501 c 0
 358.48 512.29 324.36 561 279 561 c 1
 211 561 135 482 135 356 c 1
 135 328.28 137.668 303.38 142.37 281.255 c 0
 161.758 190.043 215.736 146 260 146 c 0
 333 146 382 222 382 356 c 0
EndSplineSet
EndChar
StartChar: figuredash
Encoding: 191 8210 79
OldEncoding: 8210
Width: 531
Flags: HW
HStem: 264 66<83 458>
Fore
83 330 m 1
 458 330 l 1
 458 264 l 1
 83 264 l 1
 83 330 l 1
EndSplineSet
EndChar
StartChar: endash
Encoding: 192 8211 80
OldEncoding: 8211
Width: 489
Flags: HW
HStem: 264 66<83 418>
Fore
83 330 m 1
 418 330 l 1
 418 264 l 1
 83 264 l 1
 83 330 l 1
EndSplineSet
EndChar
StartChar: emdash
Encoding: 193 8212 81
OldEncoding: 8212
Width: 630
Flags: HW
HStem: 264 66<73 566>
Fore
73 330 m 1
 566 330 l 1
 566 264 l 1
 73 264 l 1
 73 330 l 1
EndSplineSet
EndChar
StartChar: Euro
Encoding: 202 8364 87
OldEncoding: 8364
Width: 532
Flags: HW
HStem: 103 66<311 323> 249 66<66 143 202 349> 372 66<69 131 220 352> 518 66<311 323>
VStem: 131 70<326 360>
Fore
131.902 372 m 1
 69 372 l 1
 69 438 l 1
 143.611 438 l 1
 168.131 521.963 227.27 584 311 584 c 0
 389 584 419 564 464.999 519 c 9
 446.672 500.672 418 472 418 472 c 0
 390 500 369 518 311 518 c 1
 269.775 518 238.547 482.305 220.084 438 c 1
 352 438 l 1
 352 372 l 1
 202.721 372 l 1
 201.581 362.76 201 353.689 201 345 c 0
 201 334.571 201.562 324.567 202.616 315 c 1
 349 315 l 1
 349 249 l 1
 219.806 249 l 1
 242.63 196.947 281.694 169 311 169 c 0
 353 169 378 177 420 223 c 9
 467 176 l 1
 434 138 404.001 103 311.001 103 c 1
 220.585 103 166.322 166.269 143.562 249 c 1
 66 249 l 1
 66 315 l 1
 132.247 315 l 1
 131.413 325.575 131.001 336.265 131 347 c 0
 131 355.41 131.303 363.753 131.902 372 c 1
EndSplineSet
EndChar
